<?xml version="1.0" encoding="UTF-8"?>
<svg width="82px" height="81px" viewBox="0 0 82 81" version="1.1" xmlns="http://www.w3.org/2000/svg" xmlns:xlink="http://www.w3.org/1999/xlink">
    <!-- Generator: Sketch 64 (93537) - https://sketch.com -->
    <title>Product logo/Core/Colorful/Product logo_Core_Colorful</title>
    <desc>Created with Sketch.</desc>
    <g id="页面-2" stroke="none" stroke-width="1" fill="none" fill-rule="evenodd">
        <g id="Product-logo/Core/Colorful/Product-logo_Core_Colorful" fill-rule="nonzero">
            <path d="M50.4551225,31.0046312 C37.788926,30.7123246 23.6360431,44.3118484 15,56.2964181 C19.8937577,61.2656298 28.1188981,65.6630467 35.6034687,65.9553533 C51.1483463,66.8322731 64.5606595,54.6814639 66,39.1892153 C62.5455828,34.5123101 58.2275612,31.2969378 50.4551225,31.0046312 Z" id="路径" fill="#FFCC66"></path>
            <path d="M65,42.893389 C61.9422602,45.8438684 59.3652904,48.034854 52.4670336,48.2445896 C45.5687768,48.4543252 34.2547674,41.0280086 22.2017064,37.4028079 C15.7342102,35.5902076 10.939771,40.2228116 8,44.7543124 C11.5277252,56.5362145 21.8169236,65.297116 34.4579389,65.9013162 C48.8628168,67.1097164 62.060229,57.0920916 65,42.893389 Z" id="路径" fill="#FF7673"></path>
            <path d="M29.0313198,39.9999042 C37.8705721,43.3191108 44.8727528,46.9702875 50.3719459,47.8987081 C57.2463012,49.0592953 61.7251517,45.7489953 65,43.0534447 C63.59981,49.8643428 59.9658613,55.8100974 54.9918614,60.0733513 C49.9924981,64.3307844 43.6601601,66.9205636 36.8340347,66.9991044 C35.9949364,67.0060169 35.1494872,66.9742018 34.2989555,66.902344 C34.0442192,66.8900817 33.7904246,66.8745303 33.5376068,66.8557307 C26.3261738,66.1044039 18.6690227,61.7885592 14,56.9491958 C17.8167694,51.1285861 23.0046267,45.0654856 28.7441536,40.2391796 Z" id="形状结合" fill="#FF9F73"></path>
            <path d="M67.8585174,59.9998082 L79.9755841,70.6234044 C82.4862096,72.8246798 82.6893947,76.5863701 80.4297219,79.0311352 C78.1981271,81.4455225 74.3915592,81.6663262 71.8814069,79.5443263 L71.7971274,79.4717677 L58.9999908,68.2514948 C62.3604368,65.9467618 65.3483545,63.1620415 67.8585174,59.9998082 Z" id="形状结合" fill="#009999"></path>
            <path d="M37.6979685,6.21476743 C54.1973952,7.20592302 66.4069709,21.4124865 65.7469939,37.601361 C64.7570283,54.1206208 50.5675213,66.3448731 34.3980832,65.6841027 C17.8986565,64.6929472 5.68908077,50.4863837 6.34905788,34.2975091 C7.009035,18.1086344 21.5285304,5.55399699 37.6979685,6.21476743 M38.1363905,0.0543522525 C18.3768273,-1.02401718 1.13211762,14.0731549 0.0543232672,33.8432612 C-1.02347109,53.6133675 14.0656499,70.8672783 33.825213,71.9456477 C53.5847762,73.0240172 70.4702211,57.9268451 71.9072801,38.1567389 C73.3443392,18.3866327 57.8959535,1.49217819 38.1363905,0.0543522525 Z" id="形状" fill="#009999"></path>
        </g>
    </g>
</svg>