<?xml version="1.0" encoding="UTF-8"?>
<svg width="266px" height="132px" viewBox="0 0 266 132" version="1.1" xmlns="http://www.w3.org/2000/svg" xmlns:xlink="http://www.w3.org/1999/xlink">
    <!-- Generator: Sketch 64 (93537) - https://sketch.com -->
    <title>Social/Company/Company logo</title>
    <desc>Created with Sketch.</desc>
    <g id="页面-2" stroke="none" stroke-width="1" fill="none" fill-rule="evenodd">
        <g id="Social/Company/Company-logo">
            <circle id="椭圆形备份-3" fill="#FF6666" cx="31.2869898" cy="100.528061" r="15.2869898"></circle>
            <path d="M79.4456046,52.3480551 C81.4338297,52.3480551 83.0456046,53.95983 83.0456046,55.9480551 L83.0455509,55.9677269 L82.8858201,85.1984631 C82.8858201,101.883872 69.4948859,115.44166 52.8736983,115.711147 L52.3690476,115.715236 L52.3690476,85.1984631 L52.4550476,85.1980551 L52.5383886,55.9378568 C52.5440097,53.9536212 54.1541306,52.3480551 56.1383742,52.3480551 L79.4456046,52.3480551 Z M126.317552,52.3480551 C128.305777,52.3480551 129.917552,53.95983 129.917552,55.9480551 L129.917552,96.8568493 C129.917552,98.8450744 128.305777,100.456849 126.317552,100.456849 L103.000779,100.456849 C101.012554,100.456849 99.4007793,98.8450744 99.4007793,96.8568493 L99.4007793,55.9480551 C99.4007793,53.95983 101.012554,52.3480551 103.000779,52.3480551 L126.317552,52.3480551 Z M163.126981,52.1685447 L163.582853,52.1721802 C178.597942,52.4118245 190.742093,64.4689427 191.121469,79.4496976 L191.121469,79.4496976 L191.130607,79.4593516 L191.130607,96.6773389 C191.130607,98.665564 189.518832,100.277339 187.530607,100.277339 L187.530607,100.277339 L149.853,100.277339 C147.864775,100.277339 146.253,98.665564 146.253,96.6773389 L146.253,55.7685447 C146.253,53.7803196 147.864775,52.1685447 149.853,52.1685447 L163.126981,52.1685447 Z M224.878567,99.918318 L224.878226,99.8761378 C212.262076,99.1331142 202.260253,88.666543 202.260253,75.8639209 C202.260253,62.5790442 213.029774,51.8095238 226.314651,51.8095238 C239.117486,51.8095238 249.584192,61.8116796 250.326904,74.4281256 L250.369048,74.4278375 L250.369048,96.318318 C250.369048,98.3065431 248.757273,99.918318 246.769048,99.918318 L224.878567,99.918318 Z" id="形状结合" fill="#009999"></path>
            <circle id="椭圆形" fill="#FFCC66" cx="114.735969" cy="31.2869898" r="15.2869898"></circle>
        </g>
    </g>
</svg>