<?xml version="1.0" encoding="UTF-8"?>
<svg width="112px" height="144px" viewBox="0 0 112 144" version="1.1" xmlns="http://www.w3.org/2000/svg" xmlns:xlink="http://www.w3.org/1999/xlink">
    <!-- Generator: Sketch 64 (93537) - https://sketch.com -->
    <title>Product logo/Core/Horizontal/colorful/Product logo_Core_Horizontal_colorful</title>
    <desc>Created with Sketch.</desc>
    <defs>
        <path d="M11.750716,6.39241245 C12.6032684,6.39241245 13.3374107,6.08594571 13.9531429,5.47301225 C14.5688751,4.86007878 14.8767413,4.1292735 14.8767413,3.28059639 C14.8767413,2.43191928 14.5688751,1.701114 13.9531429,1.08818053 C13.3374107,0.475247063 12.6032684,0.16878033 11.750716,0.16878033 C10.8981637,0.16878033 10.1640214,0.475247063 9.54828912,1.08818053 C8.93255687,1.701114 8.62469074,2.43191928 8.62469074,3.28059639 C8.62469074,4.1292735 8.93255687,4.86007878 9.54828912,5.47301225 C10.1640214,6.08594571 10.8981637,6.39241245 11.750716,6.39241245 Z M2.94100845,47.4118059 C5.15132934,47.4118059 7.09325413,46.9324605 8.7667828,45.9737697 C10.4403115,45.0150789 11.75861,43.7027727 12.7216784,42.0368509 C13.6847468,40.3709292 14.166281,38.4535476 14.166281,36.2847061 L14.166281,36.2847061 L14.166281,12.9932344 C14.166281,12.2702872 13.9452489,11.6887862 13.5031847,11.2487314 C13.0611205,10.8086767 12.4769643,10.5886493 11.750716,10.5886493 C11.0560437,10.5886493 10.4797815,10.8086767 10.0219293,11.2487314 C9.56407712,11.6887862 9.33515103,12.2702872 9.33515103,12.9932344 L9.33515103,12.9932344 L9.33515103,36.2847061 C9.33515103,37.510573 9.05886092,38.5949938 8.5062807,39.5379683 C7.95370047,40.4809429 7.20377017,41.2274644 6.25648979,41.7775329 C5.3092094,42.3276014 4.20404896,42.6026357 2.94100845,42.6026357 C2.24633616,42.6026357 1.67796793,42.8226631 1.23590376,43.2627179 C0.793839577,43.7027727 0.572807488,44.2842736 0.572807488,45.0072208 C0.572807488,45.6987355 0.793839577,46.2723784 1.23590376,46.7281494 C1.67796793,47.1839204 2.24633616,47.4118059 2.94100845,47.4118059 Z M31.1225833,6.39241245 C31.9751357,6.39241245 32.709278,6.08594571 33.3250102,5.47301225 C33.9407425,4.86007878 34.2486086,4.1292735 34.2486086,3.28059639 C34.2486086,2.43191928 33.9407425,1.701114 33.3250102,1.08818053 C32.709278,0.475247063 31.9751357,0.16878033 31.1225833,0.16878033 C30.270031,0.16878033 29.5358887,0.475247063 28.9201565,1.08818053 C28.3044242,1.701114 27.9965581,2.43191928 27.9965581,3.28059639 C27.9965581,4.1292735 28.3044242,4.86007878 28.9201565,5.47301225 C29.5358887,6.08594571 30.270031,6.39241245 31.1225833,6.39241245 Z M31.1225833,36.3790036 C31.8488316,36.3790036 32.4329879,36.151118 32.8750521,35.695347 C33.3171162,35.239576 33.5381483,34.6659331 33.5381483,33.9744184 L33.5381483,33.9744184 L33.5381483,12.9932344 C33.5381483,12.2702872 33.3171162,11.6887862 32.8750521,11.2487314 C32.4329879,10.8086767 31.8488316,10.5886493 31.1225833,10.5886493 C30.4279111,10.5886493 29.8516488,10.8086767 29.3937966,11.2487314 C28.9359445,11.6887862 28.7070184,12.2702872 28.7070184,12.9932344 L28.7070184,12.9932344 L28.7070184,33.9744184 C28.7070184,34.6659331 28.9359445,35.239576 29.3937966,35.695347 C29.8516488,36.151118 30.4279111,36.3790036 31.1225833,36.3790036 Z M69.4874224,36.4261523 C70.1820946,36.4261523 70.7583569,36.1982668 71.2162091,35.7424957 C71.6740612,35.2867247 71.9029873,34.7130818 71.9029873,34.0215672 L71.9029873,34.0215672 L71.9029873,22.42298 C71.9029873,19.8140837 71.4056651,17.6138098 70.4110207,15.8221581 C69.4163763,14.0305064 68.0586078,12.6710514 66.3377151,11.7437931 C64.6168224,10.8165348 62.6670036,10.3529056 60.4882587,10.3529056 C58.4042419,10.3529056 56.5254691,10.8086767 54.8519404,11.7202187 C54.0151761,12.1759898 53.2672193,12.7123066 52.60807,13.3291691 L52.436029,13.4947286 L52.4363755,12.9932344 C52.4363755,12.3258985 52.2480404,11.7790849 51.8713704,11.3527934 L51.7732792,11.2487314 C51.331215,10.8086767 50.7470588,10.5886493 50.0208105,10.5886493 C49.3261382,10.5886493 48.749876,10.8086767 48.2920238,11.2487314 C47.8341716,11.6887862 47.6052455,12.2702872 47.6052455,12.9932344 L47.6052455,12.9932344 L47.6052455,34.0215672 C47.6052455,34.7130818 47.8341716,35.2867247 48.2920238,35.7424957 C48.749876,36.1982668 49.3261382,36.4261523 50.0208105,36.4261523 C50.7470588,36.4261523 51.331215,36.1982668 51.7732792,35.7424957 C52.2153434,35.2867247 52.4363755,34.7130818 52.4363755,34.0215672 L52.4363755,34.0215672 L52.436029,20.7259964 L52.4405856,20.4948066 C52.4770734,19.5023084 52.7507322,18.6101497 53.2615619,17.8183305 L53.3836558,17.6373841 C54.0151761,16.7415583 54.8677284,16.0264692 55.9413129,15.492117 C57.0148973,14.9577647 58.2147858,14.6905886 59.5409783,14.6905886 C60.9934749,14.6905886 62.2801974,14.9656229 63.4011459,15.5156913 C64.5220944,16.0657598 65.4141167,16.9065788 66.077213,18.0381483 C66.7403092,19.1697178 67.0718574,20.6313284 67.0718574,22.42298 L67.0718574,22.42298 L67.0718574,34.0215672 C67.0718574,34.7130818 67.3007835,35.2867247 67.7586357,35.7424957 C68.2164878,36.1982668 68.7927501,36.4261523 69.4874224,36.4261523 Z M95.7744365,36.5675985 C98.0794854,36.5675985 100.147714,35.9939556 101.979123,34.8466699 C103.025642,34.1910781 103.945858,33.4020585 104.739769,32.4796113 L104.915448,32.2700578 L104.915692,34.0215672 C104.915692,34.6598884 105.110753,35.1977745 105.500876,35.6352254 L105.60247,35.7424957 C106.060323,36.1982668 106.636585,36.4261523 107.331257,36.4261523 C108.025929,36.4261523 108.602192,36.1982668 109.060044,35.7424957 C109.517896,35.2867247 109.746822,34.7130818 109.746822,34.0215672 L109.746822,34.0215672 L109.746822,23.5074008 C109.746822,21.0242344 109.17056,18.792528 108.018035,16.8122814 C106.865511,14.8320348 105.310392,13.2682686 103.35268,12.1209829 C101.394967,10.9736972 99.1846459,10.4000543 96.7217169,10.4000543 C94.2587879,10.4000543 92.040573,10.9736972 90.0670722,12.1209829 C88.0935714,13.2682686 86.5305588,14.8320348 85.3780343,16.8122814 C84.2255098,18.792528 83.6492476,21.0242344 83.6492476,23.5074008 C83.6492476,25.9905671 84.1781458,28.2144155 85.2359422,30.1789458 C86.2937387,32.1434761 87.7383412,33.6993842 89.56975,34.8466699 C91.4011587,35.9939556 93.4693876,36.5675985 95.7744365,36.5675985 Z M96.7217169,32.3242129 C95.1429162,32.3242129 93.7141017,31.939165 92.4352731,31.1690691 C91.1564446,30.3989732 90.1460122,29.3459849 89.4039759,28.0101043 C88.6619396,26.6742237 88.2909215,25.1733225 88.2909215,23.5074008 C88.2909215,21.8100466 88.6619396,20.2934291 89.4039759,18.9575485 C90.1460122,17.6216679 91.1564446,16.5686796 92.4352731,15.7985837 C93.7141017,15.0284878 95.1429162,14.6434399 96.7217169,14.6434399 C98.3320935,14.6434399 99.7688021,15.0284878 101.031843,15.7985837 C102.294883,16.5686796 103.289528,17.6216679 104.015776,18.9575485 C104.742024,20.2934291 105.105148,21.8100466 105.105148,23.5074008 C105.105148,25.1733225 104.742024,26.6742237 104.015776,28.0101043 C103.289528,29.3459849 102.294883,30.3989732 101.031843,31.1690691 C99.7688021,31.939165 98.3320935,32.3242129 96.7217169,32.3242129 Z" id="path-1"></path>
    </defs>
    <g id="页面-2" stroke="none" stroke-width="1" fill="none" fill-rule="evenodd">
        <g id="Product-logo/Core/Horizontal/colorful/Product-logo_Core_Horizontal_colorful" transform="translate(1.000000, 0.000000)" fill-rule="nonzero">
            <g id="编组-8" transform="translate(0.000000, 95.000000)">
                <g id="编组-4">
                    <g id="jina">
                        <use fill="#009999" xlink:href="#path-1"></use>
                        <use stroke="#00939B" stroke-width="1.67259786" fill="#00939B" xlink:href="#path-1"></use>
                    </g>
                </g>
            </g>
            <g id="编组-11备份-7" transform="translate(14.000000, 0.000000)">
                <path d="M50.4551225,31.0046312 C37.788926,30.7123246 23.6360431,44.3118484 15,56.2964181 C19.8937577,61.2656298 28.1188981,65.6630467 35.6034687,65.9553533 C51.1483463,66.8322731 64.5606595,54.6814639 66,39.1892153 C62.5455828,34.5123101 58.2275612,31.2969378 50.4551225,31.0046312 Z" id="路径" fill="#FFCC66"></path>
                <path d="M65,42.893389 C61.9422602,45.8438684 59.3652904,48.034854 52.4670336,48.2445896 C45.5687768,48.4543252 34.2547674,41.0280086 22.2017064,37.4028079 C15.7342102,35.5902076 10.939771,40.2228116 8,44.7543124 C11.5277252,56.5362145 21.8169236,65.297116 34.4579389,65.9013162 C48.8628168,67.1097164 62.060229,57.0920916 65,42.893389 Z" id="路径" fill="#FF7673"></path>
                <path d="M29.0313198,39.9999042 C37.8705721,43.3191108 44.8727528,46.9702875 50.3719459,47.8987081 C57.2463012,49.0592953 61.7251517,45.7489953 65,43.0534447 C63.59981,49.8643428 59.9658613,55.8100974 54.9918614,60.0733513 C49.9924981,64.3307844 43.6601601,66.9205636 36.8340347,66.9991044 C35.9949364,67.0060169 35.1494872,66.9742018 34.2989555,66.902344 C34.0442192,66.8900817 33.7904246,66.8745303 33.5376068,66.8557307 C26.3261738,66.1044039 18.6690227,61.7885592 14,56.9491958 C17.8167694,51.1285861 23.0046267,45.0654856 28.7441536,40.2391796 Z" id="形状结合" fill="#FF9F73"></path>
                <path d="M67.8585174,59.9998082 L79.9755841,70.6234044 C82.4862096,72.8246798 82.6893947,76.5863701 80.4297219,79.0311352 C78.1981271,81.4455225 74.3915592,81.6663262 71.8814069,79.5443263 L71.7971274,79.4717677 L58.9999908,68.2514948 C62.3604368,65.9467618 65.3483545,63.1620415 67.8585174,59.9998082 Z" id="形状结合" fill="#009999"></path>
                <path d="M37.6979685,6.21476743 C54.1973952,7.20592302 66.4069709,21.4124865 65.7469939,37.601361 C64.7570283,54.1206208 50.5675213,66.3448731 34.3980832,65.6841027 C17.8986565,64.6929472 5.68908077,50.4863837 6.34905788,34.2975091 C7.009035,18.1086344 21.5285304,5.55399699 37.6979685,6.21476743 M38.1363905,0.0543522525 C18.3768273,-1.02401718 1.13211762,14.0731549 0.0543232672,33.8432612 C-1.02347109,53.6133675 14.0656499,70.8672783 33.825213,71.9456477 C53.5847762,73.0240172 70.4702211,57.9268451 71.9072801,38.1567389 C73.3443392,18.3866327 57.8959535,1.49217819 38.1363905,0.0543522525 Z" id="形状" fill="#009999"></path>
            </g>
        </g>
    </g>
</svg>