<?xml version="1.0" encoding="UTF-8"?>
<svg width="420px" height="420px" viewBox="0 0 420 420" version="1.1" xmlns="http://www.w3.org/2000/svg" xmlns:xlink="http://www.w3.org/1999/xlink">
    <!-- Generator: Sketch 64 (93537) - https://sketch.com -->
    <title>Product logo_Core</title>
    <desc>Created with Sketch.</desc>
    <g id="页面-1" stroke="none" stroke-width="1" fill="none" fill-rule="evenodd">
        <g id="编组-15">
            <g id="编组"></g>
            <g id="Product-logo/Core/Colorful/Product-logo_Core_Colorful备份" transform="translate(79.333333, 79.333333)" fill-rule="nonzero">
                <path d="M157.95769,97.6605013 L159.178026,97.6752653 C183.703931,98.5947096 197.50725,108.55861 208.498735,123.118508 C203.466894,173.59896 159.38829,210.472688 109.329274,208.427007 C83.8599398,206.89701 61.6120155,195.443069 45.7197315,178.168719 C72.8941358,140.703125 116.879736,98.4694866 156.742762,97.6719291 L157.95769,97.6605013 Z" id="路径" fill="#FFCC66"></path>
                <path d="M24.6140018,141.544965 L24.6327569,141.518955 C34.1258823,127.541924 49.3327869,113.655013 69.7040852,119.244067 C108.443567,130.650299 144.807679,154.016258 166.979216,153.356352 C188.080019,152.728314 196.600959,146.454083 205.846374,137.84729 C194.579812,180.593043 154.375914,210.267855 109.329274,208.427007 C68.5298151,205.976097 35.9968165,178.05935 24.6140018,141.544965 Z" id="路径" fill="#FF7673"></path>
                <path d="M91.863103,127.926193 L92.6740633,127.243523 L94.3461753,127.880938 C121.543618,138.310277 143.175536,149.57085 160.237449,152.477505 C181.576666,156.11284 195.62477,146.016908 205.937599,137.50455 C194.795821,180.433351 154.496948,210.272801 109.329274,208.427007 C84.3227441,206.924811 62.4216151,195.856052 46.5923464,179.104608 C58.5408116,161.183518 74.3978671,142.727117 91.863103,127.926193 Z" id="路径" fill="#FF9F73"></path>
                <path d="M216.595226,193.463448 L254.712867,227.722385 C262.610861,234.820901 263.250046,246.951332 256.141506,254.835036 C249.121294,262.62078 237.146489,263.332812 229.249983,256.489938 L228.984854,256.255956 L188.727459,220.073488 C199.299016,212.6412 208.698618,203.66103 216.595226,193.463448 Z M0.350589625,107.390515 C3.77061733,44.656552 58.4910606,-3.24938344 121.191569,0.172469088 C183.892076,4.73493922 232.912473,58.3439624 228.352436,121.077925 C223.7924,183.811888 170.211966,231.717823 107.511458,228.295971 C44.8109498,224.874118 -3.06943808,170.124478 0.350589625,107.390515 Z M119.80038,19.7205308 C68.4919593,17.6237921 22.4190916,57.4618258 20.3248702,108.831922 C18.2306487,160.202018 56.9737422,205.281899 109.329274,208.427007 C160.637695,210.523745 205.663452,171.734081 208.804784,119.315615 C210.878063,68.4592202 172.92669,23.7678654 121.366935,19.8274289 L119.80038,19.7205308 Z" id="形状" fill="#009999"></path>
            </g>
        </g>
    </g>
</svg>