<?xml version="1.0" encoding="UTF-8"?>
<svg width="90px" height="90px" viewBox="0 0 90 90" version="1.1" xmlns="http://www.w3.org/2000/svg" xmlns:xlink="http://www.w3.org/1999/xlink">
    <!-- Generator: Sketch 64 (93537) - https://sketch.com -->
    <title>Social/Product/Product logo_Core</title>
    <desc>Created with Sketch.</desc>
    <g id="页面-2" stroke="none" stroke-width="1" fill="none" fill-rule="evenodd">
        <g id="Social/Product/Product-logo_Core">
            <g id="编组备份-2">
                <rect id="矩形" stroke-opacity="0.100305944" stroke="#000000" x="0.5" y="0.5" width="89" height="89"></rect>
                <g id="编组-14" transform="translate(10.000000, 10.000000)" fill-rule="nonzero">
                    <g id="编组-11备份-7">
                        <path d="M42.428869,26.0659305 C31.5676915,25.8163538 19.4316905,37.4278753 12.0263423,47.6605194 C16.2227063,51.9033231 23.2757083,55.6579178 29.6936768,55.9074945 C43.0233037,56.6562246 54.5242712,46.2816421 55.7584959,33.0540777 C52.7963566,29.0608507 49.0936825,26.3155072 42.428869,26.0659305 Z" id="路径" fill="#FFCC66"></path>
                        <path d="M55.3252041,36.5000207 C52.6994318,38.9832568 50.4865111,40.827274 44.5627724,41.0037955 C38.6390338,41.180317 28.9233568,34.9300453 18.5730342,31.8789381 C13.0192025,30.3533844 8.9020747,34.2523608 6.37760574,38.0662449 C9.40696847,47.9823435 18.2426097,55.3558527 29.0978262,55.8643707 C41.467724,56.8814064 52.8007351,48.4501909 55.3252041,36.5000207 Z" id="路径" fill="#FF7673"></path>
                        <path d="M24.6552014,33.9953086 C32.1350214,36.8280212 38.0603136,39.944019 42.7137772,40.73636 C48.5309706,41.7268483 52.3210481,38.9017151 55.092279,36.6012319 C53.9316872,42.2948321 50.9575024,47.2800272 46.8804634,50.9012508 L46.6514489,51.1020913 C42.4196981,54.7476755 37.0543854,56.9671902 31.2694177,57.0372109 C30.5559301,57.043559 29.8364134,57.0164483 29.1125462,56.95477 C28.8957003,56.9442426 28.6796607,56.9308745 28.4644577,56.9147015 C22.363587,56.2724939 15.8855492,52.5897557 11.9352336,48.460383 C15.1755309,43.4767338 19.5836099,38.2847882 24.459291,34.1593572 Z" id="形状结合" fill="#FF9F73"></path>
                        <path d="M57.822558,51.4812323 L67.99806,60.607199 C70.106428,62.4981178 70.2770584,65.7294494 68.3794348,67.8295284 C66.5053906,69.9035125 63.3087187,70.0931853 61.200748,68.270365 L61.1299718,68.2080364 L50.3842248,58.5689973 C53.2059078,56.5892997 55.7147993,54.1973776 57.822558,51.4812323 Z" id="形状结合" fill="#009999"></path>
                        <path d="M31.9609649,5.27388464 C45.9494533,6.11420283 56.3009347,18.1587637 55.7413952,31.8839609 C54.9020859,45.8892641 42.8719858,56.2531886 29.1632672,55.6929765 C15.1747788,54.8526583 4.82329732,42.8080974 5.3828369,29.0829002 C5.94237648,15.3577029 18.2522463,4.71367246 31.9609649,5.27388464 M32.3326663,0.0509821588 C15.5801799,-0.863277386 0.959828153,11.9363562 0.0460561697,28.6977813 C-0.867715814,45.4592063 11.925092,60.0873589 28.6775783,61.0016185 C45.4300647,61.915878 59.7458258,49.1162444 60.9641884,32.3548194 C62.182551,15.5933945 49.0851526,1.26999491 32.3326663,0.0509821588 Z" id="形状" fill="#009999"></path>
                    </g>
                </g>
            </g>
        </g>
    </g>
</svg>