<?xml version="1.0" encoding="UTF-8"?>
<svg width="2387px" height="796px" viewBox="0 0 2387 796" version="1.1" xmlns="http://www.w3.org/2000/svg" xmlns:xlink="http://www.w3.org/1999/xlink">
    <!-- Generator: Sketch 64 (93537) - https://sketch.com -->
    <title>banner7</title>
    <desc>Created with Sketch.</desc>
    <g id="banner7" stroke="none" stroke-width="1" fill="none" fill-rule="evenodd">
        <rect fill="#FFFFFF" x="0" y="0" width="2387" height="796"></rect>
        <g id="编组-4" transform="translate(397.877984, -0.000000)">
            <path d="M795.755968,795.755968 L795.755968,0 L1102.26062,0.0469363616 C1366.2577,3.97108646 1580.28353,199.47005 1591.08425,443.809513 L1591.34918,451.228542 L1591.51194,451.404948 L1590.71618,795.755968 L795.755968,795.755968 Z" id="路径备份" fill="#00939B" transform="translate(1193.633952, 397.877984) scale(-1, 1) translate(-1193.633952, -397.877984) "></path>
            <path d="M795.755968,795.755968 L795.755968,0 L1102.26062,0.0469363616 C1366.2577,3.97108646 1580.28353,199.47005 1591.08425,443.809513 L1591.34918,451.228542 L1591.51194,451.404948 L1590.71618,795.755968 L795.755968,795.755968 Z" id="路径备份-2" fill="#00939B" transform="translate(1193.633952, 397.877984) scale(-1, 1) translate(-1193.633952, -397.877984) "></path>
            <path d="M1778.87247,397.877984 L1778.87087,397.546565 C1674.38926,391.549767 1591.51194,304.922898 1591.51194,198.938992 C1591.51194,89.0680206 1680.57996,-5.68434189e-14 1790.45093,-5.68434189e-14 C1896.43483,-5.68434189e-14 1983.0617,82.8773222 1989.0585,187.35893 L1989.38992,187.360532 L1989.38992,392.148541 C1989.38992,395.312825 1986.82476,397.877984 1983.66048,397.877984 L1778.87247,397.877984 Z" id="形状结合" fill="#FF7673" transform="translate(1790.450928, 198.938992) scale(1, -1) translate(-1790.450928, -198.938992) "></path>
            <path d="M1778.87247,795.755968 L1778.87087,795.424549 C1674.38926,789.427751 1591.51194,702.800882 1591.51194,596.816976 C1591.51194,486.946005 1680.57996,397.877984 1790.45093,397.877984 C1896.43483,397.877984 1983.0617,480.755306 1989.0585,585.236914 L1989.38992,585.238516 L1989.38992,795.755968 L1778.87247,795.755968 Z" id="形状结合备份" fill="#00939B" transform="translate(1790.450928, 596.816976) scale(1, -1) translate(-1790.450928, -596.816976) "></path>
            <path d="M1778.87247,795.755968 L1778.87087,795.424549 C1674.38926,789.427751 1591.51194,702.800882 1591.51194,596.816976 C1591.51194,486.946005 1680.57996,397.877984 1790.45093,397.877984 C1896.43483,397.877984 1983.0617,480.755306 1989.0585,585.236914 L1989.38992,585.238516 L1989.38992,795.755968 L1778.87247,795.755968 Z" id="形状结合备份-2" fill="#00939B"></path>
            <path d="M585.238516,397.877984 L585.236914,397.546565 L584.745736,397.51777 C584.18253,397.484061 583.619955,397.448008 583.058022,397.409622 L585.236914,397.546565 C584.033447,397.477491 582.832846,397.39772 581.635206,397.307344 C581.074116,397.265004 580.513547,397.220326 579.953637,397.173328 C579.473266,397.133008 578.993161,397.09096 578.513547,397.04721 C577.960739,396.996783 577.408953,396.944131 576.85783,396.889229 C576.371377,396.84077 575.885243,396.790538 575.399632,396.738559 C574.853946,396.680149 574.308765,396.619515 573.764254,396.556683 C573.294865,396.502519 572.826071,396.446733 572.35778,396.38932 C571.783748,396.318943 571.210469,396.24612 570.637957,396.170863 C570.175615,396.110088 569.713775,396.047726 569.25244,395.983781 C568.739243,395.912648 568.226726,395.839565 567.714843,395.764533 C567.190843,395.687725 566.667391,395.608856 566.144611,395.527952 C565.62913,395.448178 565.1142,395.366407 564.599931,395.282666 C564.131484,395.206385 563.663678,395.128484 563.196426,395.048953 C562.637719,394.953856 562.07986,394.856439 561.522804,394.756703 C561.056111,394.673146 560.589985,394.587961 560.124429,394.501155 C559.60669,394.404621 559.08941,394.306032 558.572844,394.205445 C558.082343,394.109933 557.592573,394.012637 557.103455,393.913546 C556.603598,393.812279 556.10464,393.709184 555.606368,393.604225 C555.097413,393.497016 554.58865,393.387747 554.080614,393.276537 C553.6172,393.175093 553.155011,393.072174 552.69343,392.96765 C552.160591,392.846991 551.62814,392.724093 551.096511,392.599064 C550.63722,392.491046 550.178634,392.381459 549.720668,392.270288 C549.185751,392.140436 548.651586,392.008399 548.118277,391.874209 C547.667708,391.760837 547.217776,391.645936 546.768461,391.529504 C546.256314,391.396789 545.745162,391.262137 545.234819,391.125507 C544.723128,390.988517 544.211863,390.849431 543.70142,390.708361 C543.246764,390.582708 542.793019,390.455555 542.339933,390.326836 C541.844858,390.186189 541.350313,390.043598 540.856564,389.899145 C540.365352,389.755432 539.875309,389.609991 539.386061,389.462716 C538.919173,389.322174 538.452567,389.179827 537.986693,389.035814 C537.489053,388.88198 536.992343,388.726278 536.496477,388.568684 C536.036062,388.422357 535.576427,388.274417 535.117524,388.124853 C534.622435,387.963496 534.128284,387.800278 533.634995,387.635179 C533.171864,387.480175 532.709257,387.323433 532.247418,387.165039 C531.761775,386.99848 531.277355,386.830226 530.79379,386.660157 C530.333917,386.498421 529.874299,386.334857 529.415463,386.169654 C528.921137,385.991672 528.428099,385.811927 527.935976,385.630293 C527.517,385.475657 527.098385,385.319536 526.680439,385.162049 C526.154741,384.963958 525.63034,384.763797 525.107008,384.561487 C524.675898,384.394828 524.245277,384.226617 523.81539,384.056952 C523.335364,383.867498 522.85662,383.67638 522.378797,383.483459 C521.913466,383.295584 521.448426,383.10576 520.98427,382.914231 C520.524493,382.724508 520.065812,382.533208 519.608004,382.340244 C519.164641,382.153368 518.722347,381.965038 518.280877,381.775156 C517.791458,381.564652 517.302737,381.3521 516.81504,381.137649 C516.405334,380.957491 515.996363,380.775997 515.588121,380.593168 C515.093571,380.371685 514.600196,380.148291 514.1079,379.922947 C513.687468,379.730499 513.267796,379.536615 512.848917,379.341316 C512.36346,379.114977 511.878783,378.8866 511.395182,378.656328 C510.984994,378.461012 510.576003,378.264537 510.167791,378.066708 C509.68561,377.833034 509.204213,377.597321 508.723914,377.359725 C508.308013,377.153986 507.893097,376.946917 507.479009,376.738444 C507.007634,376.50113 506.537293,376.261976 506.068035,376.021012 C505.665582,375.814354 505.263612,375.6062 504.862445,375.396718 C504.379837,375.144707 503.898774,374.890979 503.418883,374.635343 C503.001334,374.412917 502.584293,374.188841 502.168147,373.963325 C501.733961,373.72803 501.301223,373.491429 500.869465,373.25327 C500.409295,372.999442 499.949598,372.743485 499.491026,372.485763 C499.091988,372.261498 498.694355,372.036212 498.297577,371.809599 C497.857903,371.558489 497.418915,371.305538 496.980987,371.050963 C496.544897,370.797456 496.109932,370.542382 495.676025,370.285707 C495.24421,370.030269 494.813413,369.773227 494.383674,369.514607 C493.992522,369.279209 493.602151,369.042446 493.212663,368.804381 C492.74742,368.520011 492.283748,368.233979 491.821344,367.946102 C491.431315,367.703283 491.041959,367.459007 490.653512,367.213423 C490.230926,366.946256 489.809312,366.677475 489.388782,366.407153 C488.97918,366.143853 488.570906,365.879288 488.163666,365.613271 C487.73078,365.330502 487.298652,365.045819 486.867704,364.759501 C486.460852,364.489193 486.054812,364.217266 485.649833,363.943887 C485.262487,363.68241 484.876374,363.419786 484.491237,363.155842 C484.079439,362.873628 483.668445,362.589688 483.258575,362.304245 C482.875027,362.037132 482.492743,361.768901 482.11145,361.499362 C481.665256,361.183944 481.220262,360.866624 480.776634,360.547521 C480.420262,360.291182 480.064534,360.033521 479.709694,359.774713 C479.287959,359.467111 478.867924,359.158221 478.449151,358.847725 C478.05255,358.55367 477.6565,358.257737 477.261592,357.960366 C476.876425,357.670329 476.492837,357.3793 476.110342,357.086916 C475.710125,356.780987 475.310695,356.473256 474.912472,356.164046 C474.528649,355.866017 474.14606,355.566703 473.764598,355.266022 C473.372845,354.957229 472.982447,354.647128 472.593244,354.335595 C472.220125,354.036937 471.84786,353.736763 471.476702,353.435279 C471.086899,353.11865 470.69847,352.8007 470.31127,352.481315 C469.933367,352.169599 469.556387,351.856307 469.180586,351.541653 C468.804623,351.226862 468.430177,350.910993 468.056917,350.593771 C467.682647,350.275691 467.309324,349.956039 466.937203,349.635032 C466.579975,349.326872 466.223914,349.017515 465.868966,348.706917 C465.474767,348.361971 465.081867,348.015429 464.690351,347.667364 C464.349047,347.363937 464.008963,347.059505 463.669936,346.753924 C463.285104,346.407059 462.901225,346.058337 462.518719,345.708141 C462.17771,345.395935 461.838293,345.083019 461.49997,344.76894 C461.111302,344.408127 460.723664,344.045387 460.337483,343.681118 C460.012767,343.374826 459.689403,343.067759 459.367073,342.75962 C458.986792,342.396082 458.607866,342.030969 458.230389,341.664372 C457.881922,341.325949 457.53441,340.985984 457.188143,340.644761 C456.839443,340.301141 456.491948,339.956185 456.145723,339.609959 C455.799783,339.26402 455.454827,338.916525 455.11115,338.567767 C454.769984,338.221558 454.43002,337.874046 454.091323,337.525297 C453.724999,337.148102 453.359886,336.769176 452.996266,336.38881 C452.688209,336.066565 452.381143,335.743201 452.075155,335.418808 C451.710582,335.032304 451.347842,334.644666 450.98664,334.25558 C450.672949,333.917676 450.360034,333.578258 450.048287,333.237752 C449.697631,332.854743 449.34891,332.470864 449.001673,332.08562 C448.696463,331.747005 448.392032,331.406921 448.088756,331.065787 C447.74054,330.674101 447.393997,330.281201 447.048986,329.886928 C446.738453,329.532055 446.429096,329.175993 446.120988,328.818825 C445.799929,328.446644 445.480277,328.073321 445.161988,327.698805 C444.844975,327.325791 444.529106,326.951345 444.214599,326.575721 C443.899661,326.199581 443.586369,325.822601 443.274447,325.444448 C442.955268,325.057498 442.637318,324.669069 442.320813,324.279419 C442.019205,323.908108 441.719031,323.535843 441.420175,323.162477 C441.10884,322.773522 440.798739,322.383123 440.490078,321.991537 C440.189265,321.609908 439.889951,321.227319 439.59201,320.843609 C439.282712,320.445273 438.974981,320.045843 438.668738,319.645216 C438.376668,319.263131 438.08564,318.879543 437.795975,318.494871 C437.498232,318.099469 437.202298,317.703418 436.907809,317.306231 C436.597747,316.888044 436.288857,316.468009 435.981581,316.046721 C435.722448,315.691435 435.464786,315.335707 435.208275,314.979095 C434.889345,314.535707 434.572024,314.090712 434.256495,313.644361 C433.987068,313.263225 433.718836,312.880942 433.451919,312.497675 C433.16628,312.087523 432.88234,311.676529 432.599911,311.264418 C432.336182,310.879594 432.073558,310.493482 431.81226,310.1064 C431.520833,309.674685 431.231233,309.242032 430.94329,308.808183 C430.674857,308.403731 430.407919,307.998325 430.142427,307.591888 C429.868462,307.172482 429.59577,306.751562 429.324629,306.329551 C429.062279,305.92122 428.801651,305.512292 428.542479,305.102352 C428.296961,304.714009 428.052685,304.324653 427.809724,303.934394 C427.521989,303.47222 427.235957,303.008548 426.951779,302.543619 C426.713522,302.153817 426.476759,301.763446 426.241304,301.372199 C425.982741,300.942555 425.725699,300.511758 425.470243,300.079912 C425.213586,299.646037 424.958512,299.211071 424.705048,298.775054 C424.45043,298.337053 424.197479,297.898065 423.946159,297.458025 C423.719756,297.061613 423.49447,296.66398 423.270517,296.265497 C423.012483,295.80637 422.756526,295.346673 422.502343,294.88586 C422.264539,294.454745 422.027938,294.022007 421.792902,293.588298 C421.567127,293.171675 421.343051,292.754634 421.120423,292.336706 C420.864989,291.857194 420.611261,291.376132 420.359451,290.893909 C420.149768,290.492356 419.941614,290.090386 419.734794,289.687618 C419.493992,289.218675 419.254838,288.748334 419.017504,288.27692 C418.809051,287.862871 418.601982,287.447955 418.396324,287.032217 C418.158648,286.551755 417.922935,286.070358 417.689113,285.587875 C417.491431,285.179965 417.294957,284.770974 417.099842,284.36121 C416.869369,283.877185 416.640991,283.392508 416.414518,282.906765 C416.219353,282.488172 416.025469,282.0685 415.833008,281.64804 C415.607677,281.155772 415.384283,280.662397 415.162848,280.167953 C414.979971,279.759605 414.798477,279.350634 414.618325,278.94094 C414.403868,278.453232 414.191317,277.96451 413.980675,277.474774 C413.79093,277.033621 413.6026,276.591327 413.415829,276.148214 C413.22276,275.690156 413.03146,275.231475 412.841832,274.771928 C412.650208,274.307542 412.460384,273.842502 412.272273,273.376587 C412.079588,272.899348 411.88847,272.420604 411.699162,271.940948 C411.525428,271.50075 411.353362,271.060155 411.182825,270.618799 C410.984503,270.105538 410.788217,269.591161 410.594009,269.075767 C410.436432,268.657583 410.280311,268.238968 410.125563,267.819688 C409.944041,267.32787 409.764296,266.834831 409.586451,266.340886 C409.421111,265.88167 409.257547,265.422052 409.095629,264.961658 C408.925742,264.478613 408.757488,263.994193 408.591058,263.508926 C408.432535,263.046711 408.275793,262.584104 408.12071,262.120737 C407.955691,261.627684 407.792472,261.133533 407.631142,260.638529 C407.481551,260.179541 407.333611,259.719906 407.187301,259.259544 C407.029691,258.763625 406.873988,258.266916 406.720185,257.769372 C406.576141,257.303401 406.433794,256.836795 406.293119,256.369465 C406.139783,255.860082 405.988305,255.349393 405.838826,254.837852 C405.70779,254.389418 405.578436,253.940843 405.450621,253.491619 C405.30324,252.973631 405.157747,252.454209 405.014314,251.933934 C404.885922,251.468208 404.759316,251.002306 404.634365,250.535728 C404.496475,250.020842 404.360482,249.50468 404.226515,248.987702 C404.110032,248.538192 403.995131,248.08826 403.881766,247.637718 C403.747569,247.104382 403.615532,246.570217 403.485658,246.035206 C403.374509,245.577334 403.264922,245.118748 403.156926,244.659549 C403.031875,244.127828 402.908977,243.595377 402.788222,243.062113 C402.683795,242.600957 402.580876,242.138768 402.479568,241.675976 C402.368221,241.167318 402.258952,240.658555 402.151633,240.149074 C402.046784,239.651329 401.943689,239.15237 401.842466,238.652731 C401.743331,238.163395 401.646035,237.673625 401.55054,237.183212 C401.449936,236.666558 401.351348,236.149278 401.254766,235.631291 C401.164477,235.14705 401.075896,234.661942 400.989079,234.176224 C400.897451,233.663588 400.807803,233.150368 400.720125,232.636476 C400.628581,232.09992 400.539152,231.56243 400.451883,231.024217 C400.376486,230.559217 400.302749,230.093987 400.230627,229.628222 C400.148825,229.099945 400.069078,228.570816 399.991418,228.041009 C399.916403,227.529242 399.84332,227.016725 399.772195,226.503582 C399.708243,226.042194 399.64588,225.580354 399.585105,225.118014 C399.509848,224.545499 399.437025,223.97222 399.366648,223.398186 C399.309235,222.929897 399.253449,222.461103 399.199296,221.991811 C399.136453,221.447203 399.075819,220.902022 399.017393,220.356181 C398.96543,219.870725 398.915198,219.384592 398.86672,218.897942 C398.811838,218.347015 398.759185,217.795229 398.708791,217.242791 C398.665008,216.762808 398.62296,216.282702 398.582621,215.80211 C398.535643,215.242421 398.490964,214.681852 398.448614,214.120633 C398.412873,213.646995 398.378781,213.172765 398.346355,212.698077 C398.30796,212.136013 398.271908,211.573438 398.238198,211.010233 C398.228395,210.846446 398.2188,210.682776 398.209403,210.519054 L397.877984,210.517452 L397.877984,5.72944297 C397.877984,2.56515899 400.443143,-5.68434189e-14 403.607427,-1.13686838e-13 L608.395436,-1.13686838e-13 L608.397038,0.331419259 L608.888217,0.360214102 C609.451423,0.393923418 610.013997,0.429975876 610.575931,0.46836186 L608.397038,0.331419259 C609.600505,0.400493126 610.801106,0.48026458 611.998747,0.570639982 C612.559836,0.61298008 613.120405,0.657658512 613.680315,0.704655826 C614.160686,0.744976324 614.640792,0.787023791 615.120405,0.830773589 C615.673213,0.881201111 616.224999,0.933853447 616.776122,0.988755013 C617.262576,1.03721386 617.748709,1.087446 618.23432,1.13942549 C618.780006,1.19783501 619.325187,1.25846876 619.869698,1.32130106 C620.339087,1.37546505 620.807881,1.43125092 621.276172,1.48866405 C621.850204,1.55904124 622.423483,1.63186383 622.995995,1.70712082 C623.458338,1.76789604 623.920178,1.83025851 624.381512,1.89420294 C624.894709,1.96533609 625.407226,2.03841893 625.919109,2.11345121 C626.448801,2.19109342 626.977929,2.27084102 627.506371,2.35266835 C627.971971,2.42476448 628.437202,2.49850177 628.901893,2.57384879 C629.440414,2.66116793 629.977904,2.75059646 630.51466,2.84217522 C631.028352,2.92981842 631.541572,3.01946662 632.054111,3.11107772 C632.539926,3.19791234 633.025034,3.2864925 633.509524,3.37682865 C634.027262,3.47336349 634.544542,3.5719518 635.061108,3.67253892 C635.551609,3.76805081 636.041379,3.86534718 636.530497,3.96443792 C637.030354,4.06570472 637.529313,4.16879969 638.027585,4.2737594 C638.53654,4.38096803 639.045302,4.49023707 639.553339,4.60144753 C640.016752,4.7028915 640.478942,4.80581053 640.940522,4.91033442 C641.473361,5.03099337 642.005812,5.15389062 642.537441,5.27892037 C642.996733,5.38693795 643.455318,5.49652476 643.913284,5.60769645 C644.448201,5.73754786 644.982366,5.86958499 645.515675,6.00377533 C645.966244,6.11714682 646.416176,6.23204818 646.865491,6.34848038 C647.382664,6.48249751 647.898826,6.61849067 648.414163,6.75650146 C648.88029,6.88133232 649.346192,7.00793781 649.81141,7.13619054 C650.332194,7.27976298 650.851615,7.42525576 651.370173,7.57279939 C651.818827,7.70045191 652.267402,7.82980576 652.715324,7.96069265 C653.227377,8.11032095 653.738066,8.26179914 654.247892,8.41526774 C654.714779,8.55580974 655.181385,8.6981574 655.647259,8.84217054 C656.1449,8.99600363 656.641609,9.15170642 657.137476,9.30930034 C657.59789,9.45562719 658.057526,9.60356728 658.516428,9.7531306 C659.011517,9.91448806 659.505668,10.0777065 659.998958,10.242805 C660.462088,10.3978091 660.924695,10.5545513 661.386535,10.7129453 C661.872177,10.879504 662.356598,11.0477579 662.840163,11.2178274 C663.300036,11.3795629 663.759654,11.5431272 664.218489,11.7083301 C664.712815,11.8863124 665.205854,12.0660566 665.697977,12.2476911 C666.116952,12.4023272 666.535567,12.5584478 666.953513,12.7159351 C667.479211,12.9140256 668.003612,13.1141869 668.526944,13.3164975 C668.958055,13.4831565 669.388675,13.651367 669.818562,13.8210318 C670.298588,14.0104858 670.777332,14.2016043 671.255155,14.3945248 C671.720486,14.5823998 672.185526,14.7722239 672.649682,14.9637534 C673.109459,15.1534763 673.56814,15.344776 674.025948,15.5377399 C674.469311,15.7246161 674.911605,15.9129458 675.353075,16.1028276 C675.842495,16.3133325 676.331216,16.5258837 676.818912,16.7403356 C677.228618,16.9204932 677.637589,17.1019868 678.045831,17.2848162 C678.540381,17.5062987 679.033756,17.729693 679.526052,17.9550369 C679.946484,18.1474854 680.366156,18.3413686 680.785036,18.5366679 C681.270492,18.7630073 681.755169,18.9913844 682.23877,19.2216561 C682.648958,19.4169724 683.057949,19.613447 683.466161,19.8112758 C683.948343,20.0449504 684.429739,20.2806636 684.910038,20.518259 C685.325939,20.7239982 685.740855,20.9310672 686.154943,21.1395401 C686.626318,21.3768542 687.096659,21.6160077 687.565917,21.8569717 C687.96837,22.0636302 688.37034,22.2717842 688.771507,22.4812662 C689.254116,22.7332766 689.735178,22.9870046 690.215069,23.2426412 C690.632619,23.4650672 691.049659,23.6891429 691.465805,23.9146596 C691.899991,24.1499539 692.332729,24.386555 692.764487,24.6247137 C693.224657,24.8785422 693.684354,25.1344993 694.142926,25.3922214 C694.541964,25.6164864 694.939597,25.8417722 695.336375,26.0683847 C695.776049,26.319495 696.215037,26.5724464 696.652965,26.8270214 C697.089055,27.0805283 697.524021,27.3356021 697.957927,27.5922772 C698.389742,27.8477149 698.820539,28.1047571 699.250278,28.3633775 C699.64143,28.5987753 700.031801,28.8355383 700.421289,29.0736033 C700.886532,29.3579727 701.350204,29.6440052 701.812608,29.9318826 C702.202637,30.1747012 702.591993,30.418977 702.98044,30.6645607 C703.386921,30.9215453 703.79251,31.1800288 704.197095,31.4399381 C704.622907,31.7134849 705.047155,31.9883152 705.470286,32.2647132 C705.876309,32.5299347 706.281715,32.7968728 706.686083,33.0652501 C707.120016,33.3532492 707.552669,33.6428492 707.984119,33.9340969 C708.371466,34.195574 708.757578,34.4581981 709.142715,34.7221418 C709.554513,35.0043561 709.965507,35.288296 710.375377,35.5737388 C710.758926,35.8408522 711.141209,36.1090835 711.522502,36.3786224 C711.968696,36.6940399 712.413691,37.0113605 712.857318,37.3304626 C713.213691,37.5868016 713.569419,37.8444636 713.924258,38.1032713 C714.345993,38.4108726 714.766028,38.719763 715.184801,39.0302593 C715.581402,39.324314 715.977453,39.6202475 716.37236,39.9176179 C716.757528,40.2076554 717.141115,40.4986837 717.523611,40.7910681 C717.923827,41.0969968 718.323257,41.4047276 718.72148,41.713938 C719.105303,42.0119668 719.487892,42.3112814 719.869355,42.6119623 C720.261107,42.920755 720.651506,43.2308563 721.040708,43.5423893 C721.413827,43.8410472 721.786092,44.1412207 722.15725,44.4427048 C722.547053,44.7593342 722.935482,45.0772837 723.322682,45.3966694 C723.700585,45.7083851 724.077565,46.0216769 724.453367,46.336331 C724.82933,46.6511222 725.203775,46.9669909 725.577035,47.284213 C725.951306,47.602293 726.324628,47.9219449 726.696749,48.2429517 C727.053978,48.5511123 727.410039,48.8604689 727.764986,49.171067 C728.159186,49.5160129 728.552085,49.8625554 728.943601,50.2106205 C729.284905,50.5140476 729.624989,50.8184789 729.964016,51.1240599 C730.348848,51.4709255 730.732728,51.8196466 731.115234,52.1698433 C731.456242,52.4820496 731.79566,52.7949653 732.133983,53.1090441 C732.52265,53.4698576 732.910288,53.8325974 733.296469,54.1968658 C733.621185,54.5031584 733.944549,54.8102248 734.26688,55.1183639 C734.64716,55.4819016 735.026086,55.8470149 735.403563,56.2136125 C735.75203,56.5520356 736.099542,56.8919996 736.44581,57.2332233 C736.793506,57.5758552 737.140006,57.9198152 737.485243,58.2650382 C737.832847,58.6126316 738.178466,58.9607906 738.522802,59.3102171 C738.863969,59.656426 739.203933,60.003938 739.54263,60.3526873 C739.908953,60.7298819 740.274067,61.1088079 740.637686,61.4891741 C740.945743,61.8114189 741.25281,62.1347833 741.558798,62.4591762 C741.923371,62.8456798 742.286111,63.2333178 742.647312,63.6224036 C742.961003,63.9603085 743.273919,64.2997262 743.585665,64.6402323 C743.936322,65.0232406 744.285043,65.40712 744.632279,65.7923638 C744.937489,66.1309792 745.241921,66.4710627 745.545196,66.8121967 C745.893413,67.2038831 746.239955,67.5967826 746.584966,67.9910565 C746.895499,68.3459295 747.204856,68.7019906 747.512964,69.0591588 C747.834023,69.4313401 748.153675,69.8046626 748.471964,70.1791792 C748.788977,70.5521928 749.104846,70.9266386 749.419354,71.3022629 C749.734291,71.6784027 750.047583,72.0553833 750.359505,72.433536 C750.678684,72.8204863 750.996634,73.2089152 751.313139,73.5985647 C751.614747,73.9698758 751.914921,74.3421413 752.213777,74.7155073 C752.525112,75.1044625 752.835213,75.4948609 753.143875,75.8864471 C753.444687,76.2680759 753.744001,76.6506654 754.041942,77.0343747 C754.351241,77.4327114 754.658971,77.8321411 754.965214,78.2327686 C755.257284,78.6148531 755.548313,78.9984406 755.837978,79.3831129 C756.135721,79.7785155 756.431654,80.1745664 756.726143,80.5717527 C757.036205,80.98994 757.345096,81.4099752 757.652371,81.8312634 C757.911505,82.1865494 758.169167,82.5422774 758.425677,82.898889 C758.744608,83.3422774 759.061928,83.787272 759.377457,84.2336234 C759.646885,84.6147593 759.915116,84.9970425 760.182033,85.3803093 C760.467672,85.7904607 760.751612,86.2014551 761.034041,86.6135665 C761.29777,86.9983902 761.560394,87.3845026 761.821692,87.7715839 C762.09324,88.1738503 762.363178,88.5768964 762.631678,88.9809804 C762.919832,89.4146403 763.206512,89.8497742 763.491525,90.2860959 C763.757272,90.6929216 764.021838,91.1011956 764.284943,91.5104971 C764.555459,91.9313276 764.824241,92.3529418 765.091473,92.7756325 C765.336991,93.163975 765.581267,93.5533311 765.824229,93.9435902 C766.111963,94.4057642 766.397996,94.8694357 766.682173,95.3343646 C766.92043,95.724167 767.157193,96.1145377 767.392648,96.5057848 C767.651211,96.9354294 767.908253,97.3662262 768.16371,97.7980724 C768.420366,98.2319475 768.67544,98.6669133 768.928904,99.1029303 C769.183522,99.540931 769.436473,99.9799191 769.687793,100.419959 C769.914196,100.816371 770.139482,101.214004 770.363435,101.612487 C770.621469,102.071614 770.877426,102.531311 771.131609,102.992124 C771.369413,103.423239 771.606014,103.855977 771.84105,104.289686 C772.066825,104.706309 772.290901,105.12335 772.513529,105.541278 C772.768964,106.02079 773.022692,106.501852 773.274501,106.984076 C773.484184,107.385628 773.692338,107.787598 773.899158,108.190366 C774.13996,108.659309 774.379114,109.12965 774.616448,109.601064 C774.824901,110.015113 775.03197,110.430029 775.237629,110.845767 C775.475305,111.326229 775.711018,111.807626 775.944839,112.290109 C776.142521,112.698019 776.338996,113.10701 776.53411,113.516774 C776.764584,114.000799 776.992961,114.485476 777.219434,114.971219 C777.4146,115.389812 777.608483,115.809484 777.800944,116.229944 C778.026275,116.722212 778.249669,117.215587 778.471104,117.710031 C778.653981,118.118379 778.835475,118.52735 779.015627,118.937044 C779.230085,119.424752 779.442636,119.913474 779.653277,120.40321 C779.843022,120.844363 780.031352,121.286657 780.218123,121.72977 C780.411192,122.187828 780.602492,122.646509 780.79212,123.106056 C780.983744,123.570442 781.173568,124.035482 781.361679,124.501397 C781.554364,124.978636 781.745482,125.45738 781.934791,125.937036 C782.104601,126.367293 782.272812,126.797914 782.439562,127.229261 C782.641781,127.752356 782.841943,128.276757 783.039944,128.802218 C783.19752,129.220401 783.353641,129.639016 783.508389,130.058296 C783.689912,130.550114 783.869656,131.043153 784.047501,131.537098 C784.212841,131.996314 784.376405,132.455932 784.538324,132.916326 C784.70821,133.399371 784.876464,133.883791 785.042894,134.369059 C785.201417,134.831273 785.358159,135.29388 785.513242,135.757247 C785.678262,136.2503 785.84148,136.744451 786.00281,137.239455 C786.152401,137.698443 786.300341,138.158078 786.446651,138.61844 C786.604262,139.114359 786.759965,139.611069 786.913768,140.108612 C787.057811,140.574583 787.200158,141.041189 787.340834,141.508519 C787.487975,141.997325 787.633416,142.487367 787.777016,142.978196 C787.921583,143.472329 788.064173,143.966874 788.204893,144.462206 C788.333539,144.915035 788.460692,145.36878 788.586273,145.823177 C788.727415,146.333879 788.866501,146.845144 789.003596,147.357225 C789.140122,147.867178 789.274773,148.37833 789.407437,148.890282 C789.52392,149.339792 789.638821,149.789724 789.752186,150.240266 C789.886383,150.773602 790.01842,151.307767 790.148294,151.842778 C790.259443,152.30065 790.36903,152.759236 790.477026,153.218435 C790.602078,153.750156 790.724975,154.282607 790.84573,154.815871 C790.950158,155.277027 791.053077,155.739216 791.154385,156.202008 C791.265731,156.710666 791.375,157.219429 791.48232,157.72891 C791.587168,158.226655 791.690263,158.725614 791.791486,159.225253 C791.890621,159.714589 791.987917,160.204359 792.083412,160.694772 C792.184016,161.211426 792.282605,161.728706 792.379186,162.246693 C792.458575,162.672472 792.536653,163.098978 792.613368,163.525956 C792.720529,164.122385 792.825065,164.719931 792.926928,165.318388 C793.00347,165.768082 793.078494,166.218236 793.152004,166.668899 C793.238766,167.200807 793.323418,167.733419 793.405952,168.266731 C793.486378,168.786417 793.564807,169.306872 793.641216,169.827983 C793.716692,170.342731 793.790215,170.85825 793.861758,171.374402 C793.92571,171.835791 793.988072,172.297631 794.048847,172.759971 C794.124104,173.332485 794.196927,173.905764 794.267304,174.479799 C794.324717,174.948087 794.380503,175.416881 794.434656,175.886173 C794.497499,176.430781 794.558133,176.975962 794.616559,177.521803 C794.668522,178.007259 794.718754,178.493392 794.767233,178.980042 C794.822115,179.530969 794.874767,180.082755 794.925161,180.635193 C794.968944,181.115176 795.010992,181.595282 795.051331,182.075874 C795.09831,182.635563 795.142988,183.196132 795.185338,183.757352 C795.221079,184.230989 795.255171,184.705219 795.287597,185.179907 C795.325992,185.741971 795.362045,186.304546 795.395754,186.867752 C795.405557,187.031539 795.415152,187.195208 795.424549,187.35893 L795.755968,187.360532 L795.755968,392.148541 C795.755968,395.312825 793.190809,397.877984 790.026525,397.877984 L585.238516,397.877984 Z" id="形状结合" fill="#00CBCF"></path>
            <circle id="椭圆形" fill="#FFCC66" cx="397.877984" cy="795.755968" r="397.877984"></circle>
        </g>
        <g id="Company-logo/light/Company-logo_info_light" transform="translate(60.000000, 645.000000)">
            <g id="编组-12备份-7">
                <g id="编组">
                    <g id="编组-2">
                        <circle id="椭圆形备份-3" fill="#FF6666" cx="13.8448209" cy="76.5537158" r="13.8448209"></circle>
                        <path d="M57.5122852,32.9199076 C59.3129419,32.9199076 60.7726626,34.3796283 60.7726626,36.1802849 L60.7726139,36.1981009 L60.6276473,62.7269927 C60.6276473,77.866634 48.4772741,90.1684035 33.3959043,90.412925 L32.9380054,90.4166346 L32.9380054,62.7269927 L33.0160054,62.7269076 L33.0916756,36.1710488 C33.0967664,34.3740052 34.5549891,32.9199076 36.3520399,32.9199076 L57.5122852,32.9199076 Z M100.041894,32.9199076 C101.842551,32.9199076 103.302272,34.3796283 103.302272,36.1802849 L103.302272,73.3114363 C103.302272,75.112093 101.842551,76.5718136 100.041894,76.5718136 L78.8730073,76.5718136 C77.0723506,76.5718136 75.61263,75.112093 75.61263,73.3114363 L75.61263,36.1802849 C75.61263,34.3796283 77.0723506,32.9199076 78.8730073,32.9199076 L100.041894,32.9199076 Z M133.435117,32.7570273 L133.848751,32.760326 C147.472618,32.9777629 158.491593,43.917572 158.836129,57.5102078 L158.836129,57.5102078 L158.844436,57.5195631 L158.844436,73.148556 C158.844436,74.9492127 157.384715,76.4089334 155.584059,76.4089334 L155.584059,76.4089334 L121.384752,76.4089334 C119.584095,76.4089334 118.124374,74.9492127 118.124374,73.148556 L118.124374,36.0174047 C118.124374,34.216748 119.584095,32.7570273 121.384752,32.7570273 L133.435117,32.7570273 Z M189.465922,76.0831729 L189.465559,76.0448972 C178.018218,75.3706822 168.943011,65.8737652 168.943011,54.2572199 C168.943011,42.2030789 178.714823,32.4312668 190.768964,32.4312668 C202.385509,32.4312668 211.882427,41.5064741 212.556642,52.9538145 L212.594917,52.9541779 L212.594917,72.8227955 C212.594917,74.6234522 211.135197,76.0831729 209.33454,76.0831729 L189.465922,76.0831729 Z" id="形状结合" fill="#009999"></path>
                        <g id="编组-3" transform="translate(117.533385, 32.250237)">
                            <g id="编组备份-4" transform="translate(21.000000, 22.140598) scale(1, -1) translate(-21.000000, -22.140598) translate(0.000000, 0.140598)">
                                <g id="编组-5" transform="translate(20.774856, 22.000000) scale(-1, 1) translate(-20.774856, -22.000000) translate(0.274856, 0.000000)">
                                    <g id="编组-6">
                                        <g id="编组-7"></g>
                                    </g>
                                </g>
                            </g>
                        </g>
                        <g id="编组备份" transform="translate(75.576434, 0.000000)" fill="#FFCC66">
                            <circle id="椭圆形" cx="13.8448209" cy="13.8448209" r="13.8448209"></circle>
                        </g>
                    </g>
                </g>
            </g>
        </g>
    </g>
</svg>