<?xml version="1.0" encoding="UTF-8"?>
<svg width="2387px" height="796px" viewBox="0 0 2387 796" version="1.1" xmlns="http://www.w3.org/2000/svg" xmlns:xlink="http://www.w3.org/1999/xlink">
    <!-- Generator: Sketch 64 (93537) - https://sketch.com -->
    <title>banner2</title>
    <desc>Created with Sketch.</desc>
    <g id="banner2" stroke="none" stroke-width="1" fill="none" fill-rule="evenodd">
        <rect fill="#FFFFFF" x="0" y="0" width="2387" height="796"></rect>
        <path d="M1591.51194,397.877984 C1371.76999,397.877984 1193.63395,576.014025 1193.63395,795.755968 L1989.38992,795.755968 C1989.38992,576.014025 1811.25388,397.877984 1591.51194,397.877984 Z" id="椭圆形" fill="#00939B"></path>
        <path d="M1966.233,795.755968 L1966.2298,795.09313 L1965.16972,795.030881 C1964.13524,794.968763 1963.10183,794.902694 1962.0695,794.832686 L1966.2298,795.09313 C1963.79536,794.953403 1961.36678,794.79179 1958.94427,794.608484 C1957.86961,794.527167 1956.79584,794.441557 1955.72328,794.351692 C1954.73802,794.269142 1953.75344,794.18297 1952.76989,794.093219 C1951.6874,793.994439 1950.60672,793.891377 1949.52731,793.784001 C1948.53085,793.684877 1947.53548,793.582078 1946.54121,793.475616 C1945.4774,793.36171 1944.41433,793.243551 1943.35252,793.121212 C1942.36456,793.00738 1941.378,792.889966 1940.39255,792.768949 C1939.31387,792.636483 1938.23643,792.499687 1937.16034,792.358591 C1936.18675,792.230934 1935.21414,792.099741 1934.24266,791.965041 C1933.2149,791.822537 1932.18847,791.676118 1931.16331,791.525789 C1930.12264,791.373187 1929.08334,791.216565 1928.04537,791.055931 C1927.04511,790.901134 1926.04589,790.742581 1925.04791,790.580315 C1924.05041,790.418127 1923.05383,790.252173 1922.0585,790.082523 C1921.01339,789.904386 1919.97032,789.722289 1918.92866,789.536138 C1917.94786,789.360864 1916.9682,789.181977 1915.9898,788.999509 C1914.95481,788.806489 1913.92069,788.609356 1912.88799,788.408228 C1911.91636,788.218995 1910.9465,788.026325 1909.9779,787.830136 C1908.96064,787.62409 1907.94444,787.41409 1906.92966,787.200224 C1905.93658,786.990929 1904.94473,786.777902 1903.95426,786.561186 C1902.96567,786.344878 1901.97882,786.12498 1900.99337,785.901424 C1900.0092,785.678162 1899.02599,785.451149 1898.04417,785.220501 C1897.02849,784.981893 1896.0147,784.739491 1895.00243,784.493216 C1894.03369,784.257534 1893.0661,784.018246 1892.09992,783.775425 C1891.09343,783.522474 1890.08829,783.265644 1889.08469,783.004995 C1888.15515,782.76358 1887.22729,782.518984 1886.30076,782.271127 C1885.2392,781.987149 1884.17892,781.698761 1883.12041,781.406108 C1882.22188,781.157686 1881.32471,780.906213 1880.42882,780.651679 C1879.41806,780.364508 1878.40922,780.073524 1877.40203,779.778663 C1876.46016,779.502923 1875.51936,779.223682 1874.58003,778.941063 C1873.61412,778.65045 1872.64993,778.356316 1871.6873,778.058626 C1870.70476,777.754778 1869.7236,777.447149 1868.74408,777.13583 C1867.83783,776.847795 1866.93324,776.556685 1866.03007,776.262432 C1865.02251,775.93417 1864.01632,775.601864 1863.01192,775.265661 C1862.07032,774.950474 1861.13074,774.63202 1860.19274,774.310159 C1859.26073,773.990352 1858.32991,773.667052 1857.40067,773.3404 C1856.42414,772.997122 1855.44957,772.650221 1854.47676,772.299636 C1853.54653,771.964397 1852.6174,771.625603 1851.68989,771.283452 C1850.78157,770.948379 1849.87532,770.610277 1848.97064,770.268972 C1847.98984,769.898951 1847.01065,769.525075 1846.03332,769.147451 C1845.14389,768.803791 1844.25603,768.457034 1843.36973,768.107187 C1842.40476,767.726289 1841.44169,767.341748 1840.48048,766.953561 C1839.59462,766.595804 1838.71001,766.234811 1837.82699,765.870733 C1836.85456,765.469786 1835.88413,765.065129 1834.91566,764.656747 C1834.0339,764.284927 1833.15397,763.91011 1832.27567,763.532222 C1831.34449,763.131582 1830.41506,762.727452 1829.48749,762.319884 C1828.58774,761.924547 1827.68949,761.525863 1826.793,761.123958 C1825.85683,760.704263 1824.92277,760.281145 1823.99064,759.854532 C1823.12743,759.45946 1822.26574,759.061329 1821.40572,758.660213 C1820.46333,758.220674 1819.52287,757.777519 1818.58444,757.330799 C1817.72502,756.921691 1816.86737,756.509622 1816.01143,756.094576 C1815.08612,755.645896 1814.163,755.193827 1813.2419,754.738297 C1812.3619,754.303094 1811.48328,753.864502 1810.60652,753.422763 C1809.72434,752.978293 1808.84435,752.530793 1807.96625,752.080123 C1807.08468,751.627673 1806.20467,751.171847 1805.32659,750.712838 C1804.43188,750.245137 1803.53947,749.774292 1802.64908,749.300163 C1801.79579,748.84579 1800.94409,748.388264 1800.09426,747.927735 C1799.21155,747.449382 1798.33114,746.967951 1797.45277,746.483298 C1796.593,746.008916 1795.73464,745.53114 1794.87823,745.050287 C1794.00398,744.559413 1793.13231,744.065643 1792.2627,743.568685 C1791.42249,743.088526 1790.58377,742.605149 1789.74699,742.118809 C1788.87908,741.614375 1788.01315,741.106697 1787.14933,740.595847 C1786.28309,740.083569 1785.41934,739.568328 1784.55772,739.049914 C1783.74119,738.558637 1782.92616,738.06426 1782.11306,737.567046 C1781.23648,737.031015 1780.3625,736.491915 1779.49078,735.949538 C1778.67564,735.442368 1777.8623,734.932228 1777.05095,734.419234 C1776.22049,733.894162 1775.39182,733.365914 1774.56525,732.834691 C1773.72913,732.297331 1772.89552,731.757169 1772.06407,731.21398 C1771.20451,730.652426 1770.34696,730.087442 1769.49173,729.519238 C1768.70786,728.998447 1767.92551,728.474656 1767.14513,727.948171 C1766.32907,727.397614 1765.51564,726.84444 1764.70438,726.288338 C1763.87921,725.722707 1763.05589,725.153768 1762.23482,724.581814 C1761.47302,724.051146 1760.71329,723.51797 1759.95551,722.982212 C1759.08903,722.369598 1758.22504,721.753557 1757.36363,721.134159 C1756.60717,720.590232 1755.85269,720.043703 1755.1002,719.494596 C1754.28859,718.902344 1753.47929,718.307085 1752.67234,717.708845 C1751.86124,717.107535 1751.05248,716.503183 1750.24609,715.895836 C1749.49527,715.330339 1748.74639,714.762142 1747.99958,714.191361 C1747.16268,713.551713 1746.32857,712.908969 1745.4971,712.262999 C1744.77156,711.699325 1744.04794,711.133128 1743.32633,710.564488 C1742.52117,709.930009 1741.71836,709.292351 1740.91807,708.651666 C1740.17863,708.059694 1739.44141,707.465188 1738.70636,706.868112 C1737.91692,706.22685 1737.13009,705.582714 1736.34578,704.935631 C1735.61233,704.330504 1734.88078,703.722552 1734.15145,703.112034 C1733.37751,702.464165 1732.60637,701.813661 1731.83774,701.160287 C1731.10353,700.536173 1730.37132,699.909186 1729.64142,699.279594 C1728.91076,698.649336 1728.18262,698.016653 1727.45681,697.381375 C1726.68361,696.704612 1725.91273,696.024626 1725.14452,695.341709 C1724.46204,694.735002 1723.7819,694.126189 1723.10386,693.515077 C1722.33206,692.819459 1721.56286,692.120731 1720.79642,691.419041 C1720.09351,690.775521 1719.39296,690.129545 1718.69475,689.481091 C1717.95434,688.793453 1717.21643,688.102917 1716.48117,687.40961 C1715.77981,686.748277 1715.08097,686.084535 1714.38455,685.418287 C1713.67346,684.738005 1712.96494,684.055161 1712.25895,683.369722 C1711.53668,682.668482 1710.81676,681.964216 1710.09951,681.257248 C1709.41304,680.580628 1708.72908,679.901587 1708.04758,679.220084 C1707.36632,678.538823 1706.68728,677.854861 1706.01071,677.168452 C1705.30369,676.451144 1704.59942,675.73122 1703.89788,675.008641 C1703.21274,674.302969 1702.5299,673.594448 1701.84967,672.883407 C1701.18337,672.186933 1700.51963,671.488095 1699.8584,670.786855 C1699.16499,670.051472 1698.47445,669.313566 1697.7867,668.573036 C1697.1356,667.871974 1696.48689,667.168438 1695.8407,666.462564 C1695.16497,665.724429 1694.49209,664.983858 1693.82198,664.240746 C1693.17365,663.521801 1692.52749,662.799995 1691.88393,662.075824 C1691.2257,661.335143 1690.57077,660.592647 1689.91857,659.847696 C1689.2728,659.11009 1688.6293,658.369591 1687.9885,657.626698 C1687.35872,656.896586 1686.73173,656.164378 1686.10737,655.429872 C1685.45424,654.661539 1684.80374,653.890394 1684.15612,653.11675 C1683.54535,652.387125 1682.9374,651.655578 1682.33203,650.921824 C1681.68519,650.137816 1681.04105,649.350988 1680.39988,648.561655 C1679.80272,647.826497 1679.20821,647.089278 1678.61629,646.3499 C1677.97555,645.549549 1677.3379,644.746732 1676.70328,643.941405 C1676.13478,643.219968 1675.56858,642.496344 1675.00484,641.770717 C1674.35894,640.93933 1673.71619,640.105229 1673.07669,639.268515 C1672.50576,638.521516 1671.93757,637.77263 1671.37197,637.021677 C1670.76472,636.215428 1670.16037,635.406662 1669.55903,634.595527 C1668.96082,633.788612 1668.36556,632.979315 1667.7733,632.167692 C1667.2242,631.415217 1666.67767,630.660732 1666.13373,629.904259 C1665.51435,629.042863 1664.89831,628.178871 1664.28564,627.312322 C1663.74993,626.554616 1663.21676,625.794886 1662.68618,625.033212 C1662.11414,624.212017 1661.5452,623.38869 1660.97929,622.563122 C1660.42346,621.752261 1659.87029,620.938834 1659.32006,620.123257 C1658.77784,619.31955 1658.2388,618.514243 1657.70263,617.706865 C1657.15002,616.874742 1656.60035,616.040232 1656.05373,615.203539 C1655.501,614.357485 1654.95122,613.508903 1654.40458,612.658103 C1653.88279,611.845952 1653.36419,611.032309 1652.84849,610.216662 C1652.33568,609.4056 1651.82554,608.592264 1651.31826,607.776958 C1650.77599,606.905401 1650.23689,606.031425 1649.70109,605.155215 C1649.20364,604.34174 1648.70927,603.526711 1648.21774,602.709773 C1647.69958,601.848562 1647.18434,600.984813 1646.67228,600.118955 C1646.16121,599.254752 1645.65353,598.388828 1645.14904,597.520822 C1644.66276,596.684135 1644.17938,595.845419 1643.69898,595.004783 C1643.20226,594.135591 1642.70849,593.263925 1642.21792,592.390219 C1641.73676,591.533268 1641.25899,590.674901 1640.78431,589.81459 C1640.29995,588.93676 1639.81852,588.056355 1639.34033,587.173938 C1638.87964,586.323812 1638.42211,585.472118 1637.96761,584.618573 C1637.49361,583.728431 1637.02277,582.836022 1636.55522,581.941615 C1636.09606,581.06323 1635.64023,580.183222 1635.1876,579.301303 C1634.73711,578.423556 1634.28961,577.543562 1633.8453,576.66169 C1633.4034,575.784625 1632.96481,574.906007 1632.52938,574.025547 C1632.07408,573.104902 1631.62201,572.181782 1631.17342,571.256663 C1630.75828,570.400535 1630.34621,569.542881 1629.93714,568.683528 C1629.49039,567.745035 1629.04723,566.804579 1628.60766,565.862115 C1628.20658,565.002165 1627.80844,564.140478 1627.41331,563.277132 C1626.98676,562.345138 1626.56364,561.411078 1626.14403,560.475102 C1625.74204,559.578413 1625.34336,558.680161 1624.94791,557.780166 C1624.54045,556.852843 1624.13632,555.923415 1623.73565,554.99215 C1623.35779,554.113937 1622.98298,553.234006 1622.61125,552.352455 C1622.20278,551.383772 1621.79812,550.413349 1621.3972,549.440989 C1621.03309,548.557897 1620.6721,547.673283 1620.31421,546.787084 C1619.92616,545.826214 1619.54162,544.863144 1619.16074,543.898227 C1618.81087,543.011873 1618.46411,542.124011 1618.12046,541.234605 C1617.74283,540.257259 1617.36895,539.278067 1616.99884,538.297029 C1616.65763,537.392583 1616.31953,536.48633 1615.98464,535.57852 C1615.6423,534.650509 1615.30351,533.721378 1614.96809,532.790636 C1614.61768,531.818333 1614.27078,530.843762 1613.92758,529.867448 C1613.60085,528.937991 1613.27755,528.007175 1612.95762,527.074794 C1612.63588,526.137169 1612.31743,525.197589 1612.0024,524.256441 C1611.66604,523.251581 1611.33373,522.245396 1611.00534,521.237443 C1610.71122,520.334666 1610.42011,519.430075 1610.13216,518.524078 C1609.82076,517.544304 1609.51313,516.563143 1609.2092,515.580355 C1608.91159,514.617971 1608.61745,513.65378 1608.32689,512.688044 C1608.03823,511.72863 1607.75314,510.767855 1607.47159,509.805569 C1607.19059,508.845169 1606.91305,507.883017 1606.63905,506.919375 C1606.35659,505.926012 1606.07794,504.931191 1605.80306,503.934803 C1605.54061,502.983471 1605.28157,502.030585 1605.02599,501.076285 C1604.75561,500.066724 1604.48908,499.055498 1604.22644,498.042706 C1603.97962,497.090907 1603.73631,496.138026 1603.49645,495.183776 C1603.25231,494.212504 1603.01167,493.239573 1602.77463,492.265237 C1602.52841,491.253204 1602.28601,490.239416 1602.0475,489.224129 C1601.81676,488.241917 1601.58974,487.258702 1601.36638,486.2741 C1601.14292,485.28908 1600.92303,484.302237 1600.7068,483.31402 C1600.49,482.323171 1600.27698,481.331322 1600.06765,480.338108 C1599.85381,479.323466 1599.64381,478.307267 1599.4377,477.289659 C1599.24158,476.321409 1599.04891,475.351541 1598.85977,474.380411 C1598.65855,473.347219 1598.46142,472.313093 1598.26829,471.277555 C1598.08209,470.279107 1597.89951,469.278795 1597.72068,468.277184 C1597.54295,467.281721 1597.36892,466.284959 1597.1986,465.286929 C1597.01711,464.223383 1596.8399,463.158783 1596.66692,462.092762 C1596.51278,461.142808 1596.36199,460.191622 1596.21457,459.239321 C1596.05233,458.191281 1595.89415,457.141644 1595.74007,456.090672 C1595.59045,455.070081 1595.44472,454.048318 1595.30287,453.025311 C1595.16816,452.053761 1595.03697,451.081158 1594.9093,450.107446 C1594.76822,449.031474 1594.63142,447.954032 1594.49894,446.875255 C1594.37794,445.889909 1594.26052,444.903347 1594.14673,443.915684 C1594.02435,442.853576 1593.90619,441.7905 1593.79223,440.726168 C1593.68358,439.711483 1593.5787,438.695132 1593.47765,437.677652 C1593.37512,436.645345 1593.27655,435.611971 1593.18194,434.577451 C1593.08564,433.524409 1592.99346,432.470484 1592.90541,431.41539 C1592.8199,430.390887 1592.73827,429.365143 1592.66053,428.338311 C1592.5814,427.293087 1592.50629,426.246391 1592.43523,425.198582 C1592.36521,424.166071 1592.29914,423.132661 1592.23702,422.098186 C1592.21581,421.744884 1592.19506,421.391558 1592.17477,421.038108 L1591.51194,421.034904 L1591.51194,38.1962865 C1591.51194,17.10106 1608.613,-5.1958202e-13 1629.70822,-6.33268857e-13 L2012.54684,-6.33268857e-13 L2012.55004,0.662838518 L2013.61012,0.725087557 C2014.6446,0.787204717 2015.67801,0.853274434 2016.71034,0.92328181 L2012.55004,0.662838518 C2014.98951,0.802853633 2017.42309,0.964846241 2019.85059,1.14862137 C2020.87708,1.2263314 2021.90282,1.30796502 2022.92746,1.39348142 C2023.98242,1.48152759 2025.03635,1.57370231 2026.08908,1.66997794 C2027.12391,1.76461589 2028.15728,1.86318632 2029.1895,1.96570165 C2030.20707,2.06676307 2031.22342,2.17164834 2032.23863,2.28035204 C2033.30244,2.3942579 2034.36551,2.51241683 2035.42732,2.63475578 C2036.41528,2.74858823 2037.40185,2.86600225 2038.38729,2.98701933 C2039.46597,3.11948492 2040.54341,3.25628093 2041.6195,3.397377 C2042.59309,3.52503379 2043.5657,3.65622676 2044.53718,3.79092731 C2045.56025,3.93278148 2046.58202,4.07851582 2047.60252,4.22812424 C2048.65358,4.38221217 2049.70322,4.54039635 2050.7515,4.70267257 C2051.70356,4.85005179 2052.65474,5.00084597 2053.6048,5.15500452 C2054.67072,5.32796264 2055.73532,5.50517322 2056.79848,5.68660175 C2057.7969,5.85698205 2058.79366,6.03101378 2059.78914,6.20874775 C2060.79073,6.38757339 2061.79104,6.57014995 2062.79004,6.75645947 C2063.82503,6.94947895 2064.85916,7.14661224 2065.89185,7.34773981 C2066.86348,7.53697358 2067.83335,7.72964363 2068.80194,7.92583197 C2069.8192,8.13187861 2070.8354,8.34187779 2071.85018,8.55574425 C2072.84326,8.76503884 2073.83511,8.97806582 2074.82558,9.19478236 C2075.81417,9.41109056 2076.80102,9.63098832 2077.78647,9.85454385 C2078.77064,10.0778063 2079.75385,10.3048187 2080.73567,10.5354676 C2081.75135,10.7740751 2082.76514,11.0164775 2083.77741,11.262752 C2084.75151,11.4997377 2085.72444,11.7403691 2086.69595,11.984573 C2087.64996,12.2243765 2088.60284,12.4676873 2089.55434,12.7144307 C2090.56743,12.9771475 2091.57866,13.2436758 2092.5883,13.5140763 C2093.54252,13.7696332 2094.49541,14.0286713 2095.44686,14.2911546 C2096.44313,14.5659988 2097.43795,14.8446555 2098.43119,15.127074 C2099.39495,15.4011134 2100.35711,15.6786581 2101.31775,15.9597289 C2102.27979,16.2412068 2103.24057,16.5262946 2104.19982,16.8149055 C2105.16572,17.1055182 2106.12991,17.3996524 2107.09254,17.6973421 C2108.07508,18.0011898 2109.05624,18.308819 2110.03576,18.620138 C2110.94201,18.9081731 2111.8466,19.199283 2112.74977,19.4935365 C2113.75733,19.8217982 2114.76352,20.1541038 2115.76792,20.4903069 C2116.70953,20.8054937 2117.6491,21.123948 2118.5871,21.4458096 C2119.51911,21.7656157 2120.44993,22.0889158 2121.37917,22.415568 C2122.3557,22.7588459 2123.33027,23.1057474 2124.30308,23.4563324 C2125.23331,23.7915711 2126.16245,24.1303649 2127.08995,24.4725158 C2127.99827,24.8075888 2128.90452,25.1456913 2129.8092,25.486996 C2130.78598,25.8554991 2131.76116,26.227826 2132.73449,26.6038702 C2133.62798,26.9490663 2134.51983,27.2973647 2135.41011,27.6487815 C2136.37508,28.0296792 2137.33815,28.4142201 2138.29936,28.802407 C2139.18522,29.1601643 2140.06983,29.5211569 2140.95285,29.8852353 C2141.92529,30.2861818 2142.89571,30.6908394 2143.86418,31.0992208 C2144.74594,31.4710416 2145.62587,31.8458577 2146.50417,32.2237457 C2147.43535,32.624386 2148.36478,33.0285162 2149.29236,33.4360838 C2150.1921,33.8314207 2151.09035,34.2301048 2151.98684,34.6320102 C2152.92301,35.051705 2153.85707,35.4748232 2154.7892,35.9014359 C2155.65241,36.2965085 2156.5141,36.6946394 2157.37412,37.0957549 C2158.31651,37.5352945 2159.25697,37.9784487 2160.1954,38.4251697 C2161.05482,38.8342773 2161.91247,39.2463459 2162.76841,39.661392 C2163.69372,40.1100726 2164.61684,40.5621414 2165.53794,41.0176715 C2166.41794,41.4528743 2167.29656,41.8914659 2168.17332,42.3332052 C2169.0555,42.777675 2169.93549,43.2251756 2170.81359,43.6758456 C2171.69516,44.1282949 2172.57517,44.5841216 2173.45325,45.04313 C2174.34796,45.5108315 2175.24037,45.9816759 2176.13076,46.4558052 C2176.98405,46.9101783 2177.83575,47.3677038 2178.68558,47.8282337 C2179.56829,48.3065865 2180.4487,48.7880167 2181.32707,49.2726703 C2182.18684,49.7470523 2183.0452,50.224828 2183.90161,50.7056809 C2184.77586,51.1965548 2185.64753,51.6903256 2186.51714,52.1872832 C2187.35736,52.6674423 2188.19607,53.1508187 2189.03285,53.6371587 C2189.90076,54.1415936 2190.76669,54.6492711 2191.63051,55.1601215 C2192.49675,55.6723989 2193.3605,56.1876405 2194.22212,56.7060538 C2195.03865,57.1973308 2195.85368,57.6917078 2196.66678,58.1889221 C2197.54336,58.7249537 2198.41734,59.2640532 2199.28906,59.8064305 C2200.1042,60.3135998 2200.91754,60.8237403 2201.72889,61.3367339 C2202.55935,61.8618065 2203.38802,62.3900538 2204.21459,62.9212771 C2205.05071,63.458637 2205.88432,63.998799 2206.71577,64.5419878 C2207.55217,65.0884098 2208.38668,65.6380887 2209.21899,66.1908167 C2210.02618,66.7268632 2210.83149,67.265903 2211.63471,67.8077974 C2212.45077,68.3583545 2213.2642,68.9115283 2214.07546,69.4676299 C2214.90063,70.0332611 2215.72395,70.6021997 2216.54502,71.1741543 C2217.30682,71.7048221 2218.06655,72.237998 2218.82433,72.7737565 C2219.69081,73.3863704 2220.5548,74.0024107 2221.41621,74.6218091 C2222.17267,75.1657358 2222.92715,75.7122654 2223.67964,76.2613718 C2224.49125,76.8536244 2225.30055,77.448883 2226.1075,78.0471229 C2226.9186,78.6484335 2227.72736,79.2527849 2228.53375,79.8601321 C2229.28457,80.4256296 2230.03345,80.993826 2230.78026,81.5646073 C2231.61716,82.2042553 2232.45127,82.8469992 2233.28274,83.492969 C2234.00828,84.0566432 2234.7319,84.6228397 2235.45351,85.1914805 C2236.25867,85.8259596 2237.06149,86.4636174 2237.86177,87.1043023 C2238.60121,87.6962745 2239.33843,88.2907805 2240.07348,88.8878566 C2240.86292,89.5291182 2241.64975,90.1732541 2242.43406,90.8203369 C2243.16751,91.4254638 2243.89906,92.0334165 2244.62839,92.6439345 C2245.40233,93.2918028 2246.17348,93.9423068 2246.9421,94.5956808 C2247.67631,95.2197952 2248.40852,95.8467817 2249.13842,96.4763745 C2249.88153,97.117364 2250.62203,97.7608683 2251.36011,98.4070572 C2252.10458,99.0588298 2252.84708,99.7137591 2253.5871,100.371408 C2254.31193,101.015552 2255.03374,101.661718 2255.75316,102.310473 C2256.49579,102.980154 2257.23637,103.653029 2257.97438,104.328651 C2258.68037,104.974958 2259.38391,105.623668 2260.08509,106.274877 C2260.8255,106.962515 2261.56341,107.653051 2262.29867,108.346358 C2263.00003,109.007691 2263.69887,109.671434 2264.39529,110.337681 C2265.10638,111.017964 2265.81491,111.700807 2266.52089,112.386246 C2267.24316,113.087486 2267.96308,113.791752 2268.68033,114.49872 C2269.36513,115.173693 2270.04743,115.851076 2270.72729,116.530908 C2271.41022,117.213815 2272.09092,117.899437 2272.76913,118.587516 C2273.47615,119.304824 2274.18042,120.024748 2274.88196,120.747327 C2275.5671,121.452999 2276.24994,122.16152 2276.93017,122.872561 C2277.59647,123.569035 2278.26021,124.267873 2278.92144,124.969113 C2279.61485,125.704496 2280.30539,126.442402 2280.99314,127.182932 C2281.64148,127.881028 2282.28746,128.581578 2282.93094,129.284446 C2283.63267,130.050927 2284.3314,130.820129 2285.02714,131.592069 C2285.63813,132.26996 2286.24694,132.950108 2286.85344,133.632357 C2287.53656,134.400798 2288.21655,135.171671 2288.89359,135.94519 C2289.52859,136.670682 2290.16127,137.398819 2290.79134,138.12927 C2291.42112,138.859382 2292.04811,139.59159 2292.67247,140.326096 C2293.3256,141.094429 2293.9761,141.865574 2294.62372,142.639218 C2295.23449,143.368843 2295.84244,144.10039 2296.44781,144.834144 C2297.09465,145.618152 2297.73879,146.40498 2298.37996,147.194313 C2298.97712,147.929471 2299.57163,148.66669 2300.16355,149.406068 C2300.80429,150.206419 2301.44194,151.009236 2302.07656,151.814564 C2302.64506,152.536001 2303.21126,153.259624 2303.775,153.985251 C2304.42091,154.816638 2305.06365,155.65074 2305.70315,156.487453 C2306.27408,157.234452 2306.84227,157.983338 2307.40787,158.734291 C2308.01512,159.54054 2308.61947,160.349306 2309.22081,161.160441 C2309.81902,161.967356 2310.41428,162.776653 2311.00654,163.588277 C2311.55564,164.340751 2312.10217,165.095236 2312.64611,165.851709 C2313.26549,166.713106 2313.88153,167.577097 2314.4942,168.443646 C2315.02991,169.201352 2315.56308,169.961083 2316.09366,170.722756 C2316.6657,171.543951 2317.23464,172.367278 2317.80055,173.192846 C2318.35638,174.003707 2318.90955,174.817134 2319.45978,175.632711 C2319.98257,176.407619 2320.50238,177.183982 2321.01953,177.96227 C2321.59144,178.822969 2322.16041,179.686529 2322.72611,180.552429 C2323.26911,181.383585 2323.80927,182.217192 2324.34639,183.052939 C2324.87785,183.879888 2325.4061,184.708557 2325.93135,185.539306 C2326.44416,186.350368 2326.9543,187.163704 2327.46158,187.97901 C2328.00385,188.850567 2328.54295,189.724543 2329.07876,190.600753 C2329.5762,191.414228 2330.07057,192.229257 2330.5621,193.046195 C2331.08026,193.907406 2331.59551,194.771155 2332.10756,195.637013 C2332.61863,196.501216 2333.12631,197.36714 2333.6308,198.235146 C2334.11709,199.071834 2334.60046,199.910549 2335.08086,200.751185 C2335.57758,201.620377 2336.07135,202.492043 2336.56192,203.36575 C2337.04308,204.2227 2337.52085,205.081067 2337.99554,205.941378 C2338.47989,206.819209 2338.96132,207.699614 2339.43951,208.58203 C2339.9002,209.432156 2340.35773,210.28385 2340.81223,211.137395 C2341.28623,212.027538 2341.75707,212.919946 2342.22462,213.814353 C2342.68378,214.692738 2343.13961,215.572746 2343.59224,216.454665 C2344.04273,217.332413 2344.49023,218.212406 2344.93455,219.094278 C2345.37644,219.971343 2345.81503,220.849961 2346.25046,221.730422 C2346.70576,222.651066 2347.15783,223.574186 2347.60642,224.499305 C2348.02156,225.355433 2348.43363,226.213087 2348.8427,227.07244 C2349.28946,228.010933 2349.73261,228.95139 2350.17218,229.893854 C2350.57327,230.753803 2350.9714,231.61549 2351.36653,232.478836 C2351.79308,233.41083 2352.2162,234.34489 2352.63581,235.280866 C2353.0378,236.177555 2353.43648,237.075807 2353.83193,237.975802 C2354.23939,238.903125 2354.64352,239.832553 2355.0442,240.763818 C2355.42205,241.642031 2355.79686,242.521963 2356.16859,243.403513 C2356.57707,244.372196 2356.98172,245.342619 2357.38264,246.31498 C2357.74675,247.198071 2358.10774,248.082686 2358.46563,248.968884 C2358.85368,249.929754 2359.23823,250.892824 2359.6191,251.857741 C2359.96845,252.74277 2360.31469,253.629302 2360.65784,254.517373 C2361.03599,255.496031 2361.41038,256.476559 2361.781,257.45894 C2362.12221,258.363385 2362.46032,259.269638 2362.7952,260.177448 C2363.13754,261.105459 2363.47633,262.03459 2363.81176,262.965332 C2364.16216,263.937635 2364.50906,264.912206 2364.85226,265.88852 C2365.17899,266.817977 2365.50229,267.748794 2365.82222,268.681174 C2366.14396,269.6188 2366.46241,270.558379 2366.77744,271.499527 C2367.1138,272.504387 2367.44611,273.510572 2367.7745,274.518525 C2368.06862,275.421302 2368.35973,276.325893 2368.64768,277.231891 C2368.95909,278.211664 2369.26671,279.192825 2369.57064,280.175613 C2369.86825,281.137997 2370.16239,282.102188 2370.45295,283.067925 C2370.73562,284.007423 2371.01486,284.948221 2371.29071,285.890467 C2371.58546,286.897283 2371.87644,287.906124 2372.16354,288.916604 C2372.41815,289.812772 2372.66962,290.709948 2372.91802,291.6084 C2373.2107,292.666986 2373.49909,293.727266 2373.78319,294.789297 C2374.03092,295.715353 2374.27552,296.643213 2374.51684,297.572393 C2374.77758,298.576354 2375.03441,299.581495 2375.28741,300.58816 C2375.53018,301.554168 2375.76947,302.521755 2376.00521,303.490731 C2376.25143,304.502764 2376.49383,305.516552 2376.73234,306.531839 C2376.96309,307.514052 2377.1901,308.497267 2377.41346,309.481868 C2377.63692,310.466888 2377.85681,311.453731 2378.07304,312.441948 C2378.28984,313.432797 2378.50287,314.424646 2378.71219,315.41786 C2378.92603,316.432502 2379.13603,317.448702 2379.34214,318.46631 C2379.53826,319.434559 2379.73093,320.404427 2379.92007,321.375558 C2380.12129,322.408749 2380.31843,323.442875 2380.51155,324.478413 C2380.69391,325.456263 2380.8728,326.435925 2381.04809,327.416831 C2381.23423,328.458388 2381.41632,329.501458 2381.59435,330.545915 C2381.76411,331.541892 2381.93006,332.538478 2382.09231,333.536309 C2382.25452,334.53395 2382.41307,335.533169 2382.5679,336.533619 C2382.72871,337.572731 2382.88552,338.613361 2383.0383,339.655304 C2383.18844,340.679206 2383.33466,341.704306 2383.47697,342.730657 C2383.61168,343.702207 2383.74287,344.674811 2383.87054,345.648522 C2384.01162,346.724494 2384.14842,347.801936 2384.2809,348.880714 C2384.4019,349.866059 2384.51932,350.852621 2384.63311,351.840284 C2384.75549,352.902392 2384.87365,353.965468 2384.98761,355.0298 C2385.09401,356.023545 2385.19681,357.01891 2385.29594,358.015357 C2385.40331,359.094783 2385.50637,360.175468 2385.60511,361.257404 C2385.69491,362.241499 2385.78108,363.226085 2385.86366,364.211692 C2385.95349,365.283905 2386.0391,366.357674 2386.12044,367.432636 C2386.19916,368.472905 2386.27389,369.514594 2386.34461,370.557386 C2386.41463,371.589897 2386.4807,372.623307 2386.54282,373.657782 C2386.56403,374.011084 2386.58478,374.36441 2386.60507,374.71786 L2387.2679,374.721064 L2387.2679,790.026525 C2387.2679,793.190809 2384.70275,795.755968 2381.53846,795.755968 L1966.233,795.755968 Z" id="形状结合" fill="#00939B"></path>
        <path d="M1591.51194,397.877984 C1809.05646,397.877984 1985.82304,572.469118 1989.33662,789.176328 L1989.38992,795.755968 L1966.233,795.755968 L1966.2291,795.09309 L1963.77682,794.944813 L1961.32856,794.781751 L1960.10595,794.694688 L1960.10595,794.694688 L1958.88436,794.603946 C1957.8985,794.529198 1956.91412,794.450897 1955.93075,794.36902 C1954.83833,794.278064 1953.74694,794.182673 1952.65682,794.082885 C1951.64719,793.990466 1950.63834,793.894244 1949.63059,793.794261 C1948.60265,793.692275 1947.57602,793.586394 1946.55056,793.476617 C1945.48734,793.362798 1944.42537,793.24479 1943.36466,793.122611 C1942.3575,793.006599 1941.35149,792.886827 1940.34664,792.763308 C1939.3058,792.635366 1938.26612,792.503394 1937.2277,792.367418 C1936.23436,792.237344 1935.24217,792.103605 1934.25115,791.966217 L1932.66211,791.742656 L1932.66211,791.742656 L1931.07497,791.512825 C1930.07837,791.366456 1929.08344,791.216463 1928.08972,791.062793 C1927.06956,790.905036 1926.04984,790.743268 1925.03142,790.577633 C1924.02366,790.413731 1923.01767,790.246128 1922.01296,790.074758 L1919.00226,789.549284 L1919.00226,789.549284 C1917.98869,789.36835 1916.97644,789.183578 1915.96554,788.994983 C1914.96591,788.808493 1913.9671,788.618168 1912.96962,788.424118 L1909.94021,787.822499 L1909.94021,787.822499 C1908.92066,787.615887 1907.90203,787.405273 1906.88483,787.190772 L1904.04029,786.579997 L1904.04029,786.579997 C1902.97984,786.348217 1901.92108,786.11223 1900.86391,785.872033 C1899.91868,785.657268 1898.97436,785.439054 1898.03134,785.217485 C1897.06663,784.990821 1896.10322,784.760631 1895.14117,784.526944 C1894.0975,784.27343 1893.05546,784.015806 1892.01505,783.754085 C1891.10569,783.525329 1890.19796,783.293544 1889.29149,783.058644 C1888.25257,782.789423 1887.21482,782.515983 1886.17875,782.238466 C1885.22486,781.982964 1884.27272,781.724093 1883.32199,781.461783 C1882.33545,781.189589 1881.35026,780.91364 1880.36662,780.634002 L1877.4846,779.802826 L1877.4846,779.802826 C1876.50176,779.515322 1875.52078,779.224217 1874.5414,778.92944 C1873.57376,778.638195 1872.6076,778.343346 1871.64302,778.044928 C1870.70982,777.756222 1869.77772,777.464054 1868.8471,777.168557 C1867.82413,776.843733 1866.80353,776.515075 1865.78474,776.182417 L1863.11724,775.300897 L1863.11724,775.300897 C1862.11671,774.966303 1861.11729,774.627615 1860.11965,774.285073 L1858.74575,773.810504 L1858.74575,773.810504 L1855.93174,772.82077 L1855.93174,772.82077 L1854.49032,772.304524 C1853.56891,771.972498 1852.6496,771.637364 1851.73189,771.298943 L1848.77478,770.195022 L1848.77478,770.195022 C1847.89707,769.863359 1847.02115,769.528805 1846.14673,769.191251 C1845.16223,768.811205 1844.17909,768.427147 1843.19786,768.039299 L1841.86996,767.511646 L1841.86996,767.511646 L1840.54463,766.979459 C1839.62248,766.607236 1838.70197,766.231623 1837.78319,765.852669 C1836.8093,765.450988 1835.83745,765.04559 1834.86755,764.636456 L1832.42312,763.595627 L1832.42312,763.595627 C1831.43349,763.170315 1830.44584,762.741064 1829.46029,762.307933 L1826.65677,761.062854 L1826.65677,761.062854 C1825.79551,760.676357 1824.93551,760.286715 1824.07714,759.89411 C1823.16181,759.475446 1822.2487,759.053585 1821.33748,758.628374 C1820.4292,758.204541 1819.52266,757.777314 1818.618,757.346772 C1817.71879,756.918827 1816.82158,756.487672 1815.92625,756.05326 L1814.58093,755.397376 L1814.58093,755.397376 L1812.00328,754.123048 L1812.00328,754.123048 L1810.77178,753.50598 C1809.80012,753.016995 1808.8304,752.523971 1807.86298,752.0271 L1806.61776,751.384772 L1806.61776,751.384772 L1805.37493,750.738101 C1804.47334,750.266965 1803.57368,749.792415 1802.67606,749.314526 L1800.05884,747.908534 L1800.05884,747.908534 C1799.19315,747.439298 1798.32904,746.966742 1797.46687,746.49108 C1796.59878,746.012148 1795.73232,745.529874 1794.86786,745.044464 C1793.99738,744.555671 1793.12958,744.064076 1792.26382,743.569323 C1791.42182,743.088147 1790.58128,742.603717 1789.74269,742.11631 L1787.14159,740.591272 L1787.14159,740.591272 L1785.83179,739.81325 L1785.83179,739.81325 L1784.52573,739.030669 C1783.73596,738.555382 1782.94775,738.077304 1782.16135,737.596572 L1780.76287,736.737707 L1780.76287,736.737707 L1779.36806,735.87315 C1778.61766,735.405883 1777.86879,734.936098 1777.1216,734.463892 L1775.81184,733.632584 L1775.81184,733.632584 L1773.26717,731.996878 L1773.26717,731.996878 L1772.03153,731.192718 C1771.22479,730.665558 1770.42023,730.135651 1769.61772,729.60291 C1768.79616,729.057527 1767.97617,728.508782 1767.15833,727.957077 C1766.30453,727.381107 1765.45393,726.802492 1764.6057,726.220676 C1763.83725,725.693579 1763.07026,725.163526 1762.30524,724.630856 C1761.4667,724.047002 1760.63054,723.460015 1759.79674,722.8699 L1757.44983,721.196127 L1757.44983,721.196127 C1756.61789,720.598259 1755.78794,719.996961 1754.96042,719.392546 L1753.84394,718.574112 L1753.84394,718.574112 L1752.73076,717.752144 C1751.87904,717.120964 1751.02946,716.486101 1750.1825,715.847932 L1747.97004,714.168781 L1747.97004,714.168781 L1745.67368,712.400104 L1745.67368,712.400104 C1744.85569,711.765334 1744.04062,711.127753 1743.22812,710.487073 L1740.97489,708.697149 L1740.97489,708.697149 L1738.73368,706.890301 L1738.73368,706.890301 C1737.91862,706.228353 1737.10666,705.563594 1736.29739,704.895697 C1735.58824,704.310441 1734.88074,703.722424 1734.17532,703.132007 C1733.37769,702.464416 1732.58313,701.794116 1731.79125,701.120769 C1731.06868,700.506354 1730.34791,699.889042 1729.62938,699.269205 L1727.5152,697.432474 L1727.5152,697.432474 L1725.15628,695.35216 L1725.15628,695.35216 C1724.44087,694.716233 1723.72753,694.07754 1723.0165,693.436318 L1720.82686,691.446904 L1720.82686,691.446904 C1720.10764,690.788591 1719.39059,690.12742 1718.67597,689.463653 L1717.58136,688.443107 L1717.58136,688.443107 L1715.44289,686.427077 L1715.44289,686.427077 L1713.29682,684.373755 L1713.29682,684.373755 L1711.21901,682.356379 L1711.21901,682.356379 L1710.24381,681.399409 C1709.5094,680.676268 1708.77737,679.949872 1708.04815,679.220659 L1705.86808,677.023669 L1705.86808,677.023669 C1705.22946,676.375112 1704.59265,675.723944 1703.95805,675.070605 L1701.83494,672.868016 L1701.83494,672.868016 C1701.1712,672.174145 1700.5093,671.477186 1699.8499,670.777838 L1697.80411,668.591783 L1697.80411,668.591783 L1695.82075,666.440776 L1695.82075,666.440776 L1694.82444,665.348246 L1694.82444,665.348246 L1693.83195,664.251802 C1693.19036,663.540379 1692.55167,662.827031 1691.91552,662.111372 C1691.21919,661.328014 1690.52569,660.541633 1689.83525,659.7525 L1688.91535,658.697373 L1688.91535,658.697373 L1687.99897,657.638834 C1687.37886,656.919997 1686.76155,656.199227 1686.14678,655.476231 C1685.47379,654.68477 1684.80349,653.890218 1684.13625,653.093013 L1682.37186,650.970096 L1682.37186,650.970096 C1681.70431,650.161242 1681.03955,649.34928 1680.37795,648.534651 L1678.57037,646.292535 L1678.57037,646.292535 L1676.78103,644.040038 L1676.78103,644.040038 C1676.14015,643.22728 1675.50257,642.412219 1674.86811,641.594617 L1673.09833,639.296825 L1673.09833,639.296825 C1672.5371,638.562652 1671.97757,637.825426 1671.42057,637.086195 C1670.7818,636.238447 1670.14694,635.388863 1669.5154,634.536666 C1668.96655,633.79605 1668.41986,633.052975 1667.87569,632.307938 C1667.27094,631.479961 1666.66965,630.650014 1666.07148,629.817663 L1664.39809,627.471285 L1664.39809,627.471285 C1663.80789,626.637369 1663.2209,625.801204 1662.63706,624.962686 C1662.10438,624.197642 1661.57433,623.430658 1661.0469,622.661728 C1660.46541,621.81397 1659.8868,620.963372 1659.3114,620.110424 C1658.75912,619.291737 1658.21038,618.471741 1657.66461,617.6496 L1656.07529,615.23653 L1656.07529,615.23653 L1655.27102,614.000728 L1655.27102,614.000728 L1654.47129,612.761885 C1653.91239,611.892596 1653.35665,611.020757 1652.80421,610.146616 L1652.09754,609.024301 L1652.09754,609.024301 L1651.39467,607.899705 C1650.81651,606.97123 1650.24199,606.040055 1649.6712,605.106343 L1648.95221,603.925575 L1648.95221,603.925575 L1647.45469,601.43617 L1647.45469,601.43617 L1646.67703,600.126988 C1646.16503,599.261263 1645.65661,598.394109 1645.15139,597.524866 C1644.66419,596.686624 1644.17976,595.846089 1643.69832,595.003624 C1643.20383,594.138326 1642.71223,593.270529 1642.22381,592.40071 C1641.73803,591.535583 1641.25576,590.669124 1640.77663,589.800684 L1640.06564,588.506281 L1640.06564,588.506281 L1639.35917,587.208697 C1638.88765,586.338804 1638.41908,585.466583 1637.95368,584.592421 L1637.23909,583.243956 L1637.23909,583.243956 L1636.52974,581.892861 C1636.09726,581.065253 1635.66755,580.235819 1635.24068,579.404687 C1634.74393,578.437507 1634.25091,577.467785 1633.76175,576.495782 L1632.53204,574.030913 L1632.53204,574.030913 L1631.87053,572.686986 L1631.87053,572.686986 L1631.21426,571.340867 C1630.78023,570.446322 1630.34908,569.549111 1629.9212,568.650042 C1629.49059,567.745244 1629.06336,566.838701 1628.63947,565.930291 C1628.21432,565.019203 1627.79246,564.106099 1627.37396,563.191134 C1626.98119,562.332395 1626.59155,561.47239 1626.20488,560.61076 L1624.96008,557.807854 L1624.96008,557.807854 C1624.52684,556.822062 1624.09759,555.834416 1623.67224,554.844697 L1622.63136,552.400142 L1622.63136,552.400142 C1622.22231,551.430458 1621.81692,550.458602 1621.41527,549.484803 L1620.84932,548.105258 L1620.84932,548.105258 L1620.28841,546.723193 C1619.93213,545.840533 1619.57888,544.956215 1619.22872,544.070341 C1618.84076,543.088815 1618.4567,542.105674 1618.07645,541.12064 C1617.7391,540.246753 1617.40455,539.370839 1617.073,538.493447 L1615.96889,535.535814 L1615.96889,535.535814 C1615.63054,534.6183 1615.29541,533.698995 1614.96357,532.778114 C1614.61739,531.817403 1614.27498,530.855511 1613.93619,529.891922 C1613.61553,528.979959 1613.29773,528.065364 1612.98318,527.149259 C1612.64029,526.150619 1612.3016,525.151198 1611.96679,524.150003 L1611.08546,521.483078 L1611.08546,521.483078 C1610.75283,520.464372 1610.42417,519.443774 1610.09953,518.421385 C1609.80385,517.490183 1609.51168,516.55808 1609.22286,515.624507 C1608.92456,514.660302 1608.62971,513.694149 1608.33845,512.726443 C1608.04369,511.747121 1607.75258,510.766149 1607.46517,509.783601 L1606.63382,506.900982 L1606.63382,506.900982 L1606.2172,505.424629 L1606.2172,505.424629 L1605.80607,503.945733 C1605.54381,502.995189 1605.28494,502.04304 1605.02952,501.089478 L1604.61623,499.533835 L1604.61623,499.533835 L1604.20914,497.975944 C1603.97436,497.069943 1603.74258,496.162216 1603.51392,495.253246 C1603.2521,494.212446 1602.99447,493.170407 1602.74097,492.12676 C1602.50727,491.164689 1602.27708,490.201274 1602.05041,489.236505 C1601.82885,488.293544 1601.61064,487.349229 1601.39579,486.403633 C1601.15567,485.346827 1600.91969,484.288063 1600.68793,483.227717 L1600.0772,480.38338 L1600.0772,480.38338 C1599.86263,479.365876 1599.65202,478.347247 1599.44531,477.327201 L1598.84388,474.298786 L1598.84388,474.298786 C1598.64974,473.300809 1598.45941,472.301998 1598.27283,471.301871 C1598.08433,470.291465 1597.89955,469.279218 1597.71862,468.265641 L1597.19315,465.254942 L1597.19315,465.254942 C1597.02178,464.250234 1596.85417,463.244241 1596.69035,462.236978 C1596.52464,461.218061 1596.36287,460.198344 1596.20498,459.177345 L1595.75001,456.158409 L1595.75001,456.158409 C1595.59644,455.112113 1595.44701,454.065005 1595.30166,453.016592 C1595.1643,452.025735 1595.03056,451.033545 1594.90049,450.040201 C1594.76451,449.001783 1594.63254,447.962106 1594.50459,446.921185 C1594.38108,445.916415 1594.26131,444.910402 1594.14529,443.903245 C1594.02311,442.842538 1593.90511,441.780565 1593.79129,440.71734 C1593.68151,439.691883 1593.57563,438.665255 1593.47366,437.637477 C1593.37366,436.629569 1593.27744,435.620717 1593.18499,434.610774 C1593.08523,433.520966 1592.98984,432.429571 1592.89887,431.336922 C1592.81701,430.353785 1592.73871,429.369402 1592.66399,428.384016 C1592.58411,427.330415 1592.50837,426.276144 1592.43673,425.220744 L1592.33207,423.63208 L1592.33207,423.63208 L1592.17481,421.038802 L1592.17481,421.038802 L1591.51194,421.034904 L1591.51194,397.877984 Z" id="路径" fill="#FFCC66"></path>
        <path d="M2012.55004,0.662838518 L2016.26992,0.895 L2015.03592,0.813 L2015.16103,0.821225853 C2015.67774,0.854258849 2016.19417,0.888278122 2016.71034,0.92328181 L2016.26992,0.895 L2017.42107,0.972114301 C2018.23158,1.0285249 2019.04143,1.08736299 2019.85059,1.14862137 C2020.87708,1.2263314 2021.90282,1.30796502 2022.92746,1.39348142 C2023.98242,1.48152759 2025.03635,1.57370231 2026.08908,1.66997794 C2027.12391,1.76461589 2028.15728,1.86318632 2029.1895,1.96570165 C2030.20707,2.06676307 2031.22342,2.17164834 2032.23863,2.28035204 C2033.30244,2.3942579 2034.36551,2.51241683 2035.42732,2.63475578 C2036.41528,2.74858823 2037.40185,2.86600225 2038.38729,2.98701933 C2039.46597,3.11948492 2040.54341,3.25628093 2041.6195,3.397377 C2042.59309,3.52503379 2043.5657,3.65622676 2044.53718,3.79092731 C2045.56025,3.93278148 2046.58202,4.07851582 2047.60252,4.22812424 C2048.65358,4.38221217 2049.70322,4.54039635 2050.7515,4.70267257 C2051.70356,4.85005179 2052.65474,5.00084597 2053.6048,5.15500452 C2054.67072,5.32796264 2055.73532,5.50517322 2056.79848,5.68660175 C2057.7969,5.85698205 2058.79366,6.03101378 2059.78914,6.20874775 C2060.79073,6.38757339 2061.79104,6.57014995 2062.79004,6.75645947 C2063.82503,6.94947895 2064.85916,7.14661224 2065.89185,7.34773981 C2066.86348,7.53697358 2067.83335,7.72964363 2068.80194,7.92583197 C2069.8192,8.13187861 2070.8354,8.34187779 2071.85018,8.55574425 C2072.84326,8.76503884 2073.83511,8.97806582 2074.82558,9.19478236 C2075.81417,9.41109056 2076.80102,9.63098832 2077.78647,9.85454385 C2078.77064,10.0778063 2079.75385,10.3048187 2080.73567,10.5354676 C2081.75135,10.7740751 2082.76514,11.0164775 2083.77741,11.262752 C2084.75151,11.4997377 2085.72444,11.7403691 2086.69595,11.984573 C2087.64996,12.2243765 2088.60284,12.4676873 2089.55434,12.7144307 C2090.56743,12.9771475 2091.57866,13.2436758 2092.5883,13.5140763 C2093.54252,13.7696332 2094.49541,14.0286713 2095.44686,14.2911546 C2096.44313,14.5659988 2097.43795,14.8446555 2098.43119,15.127074 C2099.39495,15.4011134 2100.35711,15.6786581 2101.31775,15.9597289 C2102.27979,16.2412068 2103.24057,16.5262946 2104.19982,16.8149055 C2105.16572,17.1055182 2106.12991,17.3996524 2107.09254,17.6973421 C2108.07508,18.0011898 2109.05624,18.308819 2110.03576,18.620138 C2110.94201,18.9081731 2111.8466,19.199283 2112.74977,19.4935365 C2113.75733,19.8217982 2114.76352,20.1541038 2115.76792,20.4903069 C2116.70953,20.8054937 2117.6491,21.123948 2118.5871,21.4458096 C2119.51911,21.7656157 2120.44993,22.0889158 2121.37917,22.415568 C2122.3557,22.7588459 2123.33027,23.1057474 2124.30308,23.4563324 C2125.23331,23.7915711 2126.16245,24.1303649 2127.08995,24.4725158 C2127.99827,24.8075888 2128.90452,25.1456913 2129.8092,25.486996 C2130.78598,25.8554991 2131.76116,26.227826 2132.73449,26.6038702 C2133.62798,26.9490663 2134.51983,27.2973647 2135.41011,27.6487815 C2136.37508,28.0296792 2137.33815,28.4142201 2138.29936,28.802407 C2139.18522,29.1601643 2140.06983,29.5211569 2140.95285,29.8852353 C2141.92529,30.2861818 2142.89571,30.6908394 2143.86418,31.0992208 C2144.74594,31.4710416 2145.62587,31.8458577 2146.50417,32.2237457 C2147.43535,32.624386 2148.36478,33.0285162 2149.29236,33.4360838 C2150.1921,33.8314207 2151.09035,34.2301048 2151.98684,34.6320102 C2152.92301,35.051705 2153.85707,35.4748232 2154.7892,35.9014359 C2155.65241,36.2965085 2156.5141,36.6946394 2157.37412,37.0957549 C2158.31651,37.5352945 2159.25697,37.9784487 2160.1954,38.4251697 C2161.05482,38.8342773 2161.91247,39.2463459 2162.76841,39.661392 C2163.69372,40.1100726 2164.61684,40.5621414 2165.53794,41.0176715 C2166.41794,41.4528743 2167.29656,41.8914659 2168.17332,42.3332052 C2169.0555,42.777675 2169.93549,43.2251756 2170.81359,43.6758456 C2171.69516,44.1282949 2172.57517,44.5841216 2173.45325,45.04313 C2174.34796,45.5108315 2175.24037,45.9816759 2176.13076,46.4558052 C2176.98405,46.9101783 2177.83575,47.3677038 2178.68558,47.8282337 C2179.56829,48.3065865 2180.4487,48.7880167 2181.32707,49.2726703 C2182.18684,49.7470523 2183.0452,50.224828 2183.90161,50.7056809 C2184.77586,51.1965548 2185.64753,51.6903256 2186.51714,52.1872832 C2187.35736,52.6674423 2188.19607,53.1508187 2189.03285,53.6371587 C2189.90076,54.1415936 2190.76669,54.6492711 2191.63051,55.1601215 C2192.49675,55.6723989 2193.3605,56.1876405 2194.22212,56.7060538 C2195.03865,57.1973308 2195.85368,57.6917078 2196.66678,58.1889221 C2197.54336,58.7249537 2198.41734,59.2640532 2199.28906,59.8064305 C2200.1042,60.3135998 2200.91754,60.8237403 2201.72889,61.3367339 C2202.55935,61.8618065 2203.38802,62.3900538 2204.21459,62.9212771 C2205.05071,63.458637 2205.88432,63.998799 2206.71577,64.5419878 C2207.55217,65.0884098 2208.38668,65.6380887 2209.21899,66.1908167 C2210.02618,66.7268632 2210.83149,67.265903 2211.63471,67.8077974 C2212.45077,68.3583545 2213.2642,68.9115283 2214.07546,69.4676299 C2214.90063,70.0332611 2215.72395,70.6021997 2216.54502,71.1741543 C2217.30682,71.7048221 2218.06655,72.237998 2218.82433,72.7737565 C2219.69081,73.3863704 2220.5548,74.0024107 2221.41621,74.6218091 C2222.17267,75.1657358 2222.92715,75.7122654 2223.67964,76.2613718 C2224.49125,76.8536244 2225.30055,77.448883 2226.1075,78.0471229 C2226.9186,78.6484335 2227.72736,79.2527849 2228.53375,79.8601321 C2229.28457,80.4256296 2230.03345,80.993826 2230.78026,81.5646073 C2231.61716,82.2042553 2232.45127,82.8469992 2233.28274,83.492969 C2234.00828,84.0566432 2234.7319,84.6228397 2235.45351,85.1914805 C2236.25867,85.8259596 2237.06149,86.4636174 2237.86177,87.1043023 C2238.60121,87.6962745 2239.33843,88.2907805 2240.07348,88.8878566 C2240.86292,89.5291182 2241.64975,90.1732541 2242.43406,90.8203369 C2243.16751,91.4254638 2243.89906,92.0334165 2244.62839,92.6439345 C2245.40233,93.2918028 2246.17348,93.9423068 2246.9421,94.5956808 C2247.67631,95.2197952 2248.40852,95.8467817 2249.13842,96.4763745 C2249.88153,97.117364 2250.62203,97.7608683 2251.36011,98.4070572 C2252.10458,99.0588298 2252.84708,99.7137591 2253.5871,100.371408 C2254.31193,101.015552 2255.03374,101.661718 2255.75316,102.310473 C2256.49579,102.980154 2257.23637,103.653029 2257.97438,104.328651 C2258.68037,104.974958 2259.38391,105.623668 2260.08509,106.274877 C2260.8255,106.962515 2261.56341,107.653051 2262.29867,108.346358 C2263.00003,109.007691 2263.69887,109.671434 2264.39529,110.337681 C2265.10638,111.017964 2265.81491,111.700807 2266.52089,112.386246 C2267.24316,113.087486 2267.96308,113.791752 2268.68033,114.49872 C2269.36513,115.173693 2270.04743,115.851076 2270.72729,116.530908 C2271.41022,117.213815 2272.09092,117.899437 2272.76913,118.587516 C2273.47615,119.304824 2274.18042,120.024748 2274.88196,120.747327 C2275.5671,121.452999 2276.24994,122.16152 2276.93017,122.872561 C2277.59647,123.569035 2278.26021,124.267873 2278.92144,124.969113 C2279.61485,125.704496 2280.30539,126.442402 2280.99314,127.182932 C2281.64148,127.881028 2282.28746,128.581578 2282.93094,129.284446 C2283.63267,130.050927 2284.3314,130.820129 2285.02714,131.592069 C2285.63813,132.26996 2286.24694,132.950108 2286.85344,133.632357 C2287.53656,134.400798 2288.21655,135.171671 2288.89359,135.94519 C2289.52859,136.670682 2290.16127,137.398819 2290.79134,138.12927 C2291.42112,138.859382 2292.04811,139.59159 2292.67247,140.326096 C2293.3256,141.094429 2293.9761,141.865574 2294.62372,142.639218 C2295.23449,143.368843 2295.84244,144.10039 2296.44781,144.834144 C2297.09465,145.618152 2297.73879,146.40498 2298.37996,147.194313 C2298.97712,147.929471 2299.57163,148.66669 2300.16355,149.406068 C2300.80429,150.206419 2301.44194,151.009236 2302.07656,151.814564 C2302.64506,152.536001 2303.21126,153.259624 2303.775,153.985251 C2304.42091,154.816638 2305.06365,155.65074 2305.70315,156.487453 C2306.27408,157.234452 2306.84227,157.983338 2307.40787,158.734291 C2308.01512,159.54054 2308.61947,160.349306 2309.22081,161.160441 C2309.81902,161.967356 2310.41428,162.776653 2311.00654,163.588277 C2311.55564,164.340751 2312.10217,165.095236 2312.64611,165.851709 C2313.26549,166.713106 2313.88153,167.577097 2314.4942,168.443646 C2315.02991,169.201352 2315.56308,169.961083 2316.09366,170.722756 C2316.6657,171.543951 2317.23464,172.367278 2317.80055,173.192846 C2318.35638,174.003707 2318.90955,174.817134 2319.45978,175.632711 C2319.98257,176.407619 2320.50238,177.183982 2321.01953,177.96227 C2321.59144,178.822969 2322.16041,179.686529 2322.72611,180.552429 C2323.26911,181.383585 2323.80927,182.217192 2324.34639,183.052939 C2324.87785,183.879888 2325.4061,184.708557 2325.93135,185.539306 C2326.44416,186.350368 2326.9543,187.163704 2327.46158,187.97901 C2328.00385,188.850567 2328.54295,189.724543 2329.07876,190.600753 C2329.5762,191.414228 2330.07057,192.229257 2330.5621,193.046195 C2331.08026,193.907406 2331.59551,194.771155 2332.10756,195.637013 C2332.61863,196.501216 2333.12631,197.36714 2333.6308,198.235146 C2334.11709,199.071834 2334.60046,199.910549 2335.08086,200.751185 C2335.57758,201.620377 2336.07135,202.492043 2336.56192,203.36575 C2337.04308,204.2227 2337.52085,205.081067 2337.99554,205.941378 C2338.47989,206.819209 2338.96132,207.699614 2339.43951,208.58203 C2339.9002,209.432156 2340.35773,210.28385 2340.81223,211.137395 C2341.28623,212.027538 2341.75707,212.919946 2342.22462,213.814353 C2342.68378,214.692738 2343.13961,215.572746 2343.59224,216.454665 C2344.04273,217.332413 2344.49023,218.212406 2344.93455,219.094278 C2345.37644,219.971343 2345.81503,220.849961 2346.25046,221.730422 C2346.70576,222.651066 2347.15783,223.574186 2347.60642,224.499305 C2348.02156,225.355433 2348.43363,226.213087 2348.8427,227.07244 C2349.28946,228.010933 2349.73261,228.95139 2350.17218,229.893854 C2350.57327,230.753803 2350.9714,231.61549 2351.36653,232.478836 C2351.79308,233.41083 2352.2162,234.34489 2352.63581,235.280866 C2353.0378,236.177555 2353.43648,237.075807 2353.83193,237.975802 C2354.23939,238.903125 2354.64352,239.832553 2355.0442,240.763818 C2355.42205,241.642031 2355.79686,242.521963 2356.16859,243.403513 C2356.57707,244.372196 2356.98172,245.342619 2357.38264,246.31498 C2357.74675,247.198071 2358.10774,248.082686 2358.46563,248.968884 C2358.85368,249.929754 2359.23823,250.892824 2359.6191,251.857741 C2359.96845,252.74277 2360.31469,253.629302 2360.65784,254.517373 C2361.03599,255.496031 2361.41038,256.476559 2361.781,257.45894 C2362.12221,258.363385 2362.46032,259.269638 2362.7952,260.177448 C2363.13754,261.105459 2363.47633,262.03459 2363.81176,262.965332 C2364.16216,263.937635 2364.50906,264.912206 2364.85226,265.88852 C2365.17899,266.817977 2365.50229,267.748794 2365.82222,268.681174 C2366.14396,269.6188 2366.46241,270.558379 2366.77744,271.499527 C2367.1138,272.504387 2367.44611,273.510572 2367.7745,274.518525 C2368.06862,275.421302 2368.35973,276.325893 2368.64768,277.231891 C2368.95909,278.211664 2369.26671,279.192825 2369.57064,280.175613 C2369.86825,281.137997 2370.16239,282.102188 2370.45295,283.067925 C2370.73562,284.007423 2371.01486,284.948221 2371.29071,285.890467 C2371.58546,286.897283 2371.87644,287.906124 2372.16354,288.916604 C2372.41815,289.812772 2372.66962,290.709948 2372.91802,291.6084 C2373.2107,292.666986 2373.49909,293.727266 2373.78319,294.789297 C2374.03092,295.715353 2374.27552,296.643213 2374.51684,297.572393 C2374.77758,298.576354 2375.03441,299.581495 2375.28741,300.58816 C2375.53018,301.554168 2375.76947,302.521755 2376.00521,303.490731 C2376.25143,304.502764 2376.49383,305.516552 2376.73234,306.531839 C2376.96309,307.514052 2377.1901,308.497267 2377.41346,309.481868 C2377.63692,310.466888 2377.85681,311.453731 2378.07304,312.441948 C2378.28984,313.432797 2378.50287,314.424646 2378.71219,315.41786 C2378.92603,316.432502 2379.13603,317.448702 2379.34214,318.46631 C2379.53826,319.434559 2379.73093,320.404427 2379.92007,321.375558 C2380.12129,322.408749 2380.31843,323.442875 2380.51155,324.478413 C2380.69391,325.456263 2380.8728,326.435925 2381.04809,327.416831 C2381.23423,328.458388 2381.41632,329.501458 2381.59435,330.545915 C2381.76411,331.541892 2381.93006,332.538478 2382.09231,333.536309 C2382.25452,334.53395 2382.41307,335.533169 2382.5679,336.533619 C2382.72871,337.572731 2382.88552,338.613361 2383.0383,339.655304 C2383.18844,340.679206 2383.33466,341.704306 2383.47697,342.730657 C2383.61168,343.702207 2383.74287,344.674811 2383.87054,345.648522 C2384.01162,346.724494 2384.14842,347.801936 2384.2809,348.880714 C2384.4019,349.866059 2384.51932,350.852621 2384.63311,351.840284 C2384.75549,352.902392 2384.87365,353.965468 2384.98761,355.0298 C2385.09401,356.023545 2385.19681,357.01891 2385.29594,358.015357 C2385.40331,359.094783 2385.50637,360.175468 2385.60511,361.257404 C2385.69491,362.241499 2385.78108,363.226085 2385.86366,364.211692 C2385.95349,365.283905 2386.0391,366.357674 2386.12044,367.432636 C2386.19916,368.472905 2386.27389,369.514594 2386.34461,370.557386 C2386.41463,371.589897 2386.4807,372.623307 2386.54282,373.657782 C2386.56403,374.011084 2386.58478,374.36441 2386.60507,374.71786 L2387.2679,374.721064 L2387.2679,790.026525 C2387.2679,793.190809 2384.70275,795.755968 2381.53846,795.755968 L1989.38992,795.755968 L1989.38992,-7.23735837e-13 L2012.54684,-7.23735837e-13 L2012.55004,0.662838518 L2013.61012,0.725087557 L2014.78892,0.798 L2012.55004,0.662838518 Z" id="形状结合" fill-opacity="0.414745411" fill="#E6F4F4"></path>
        <g id="Company-logo/light/Company-logo_info_light" transform="translate(60.000000, 645.000000)">
            <g id="编组-12备份-7">
                <g id="编组">
                    <g id="编组-2">
                        <circle id="椭圆形备份-3" fill="#FF6666" cx="13.8448209" cy="76.5537158" r="13.8448209"></circle>
                        <path d="M57.5122852,32.9199076 C59.3129419,32.9199076 60.7726626,34.3796283 60.7726626,36.1802849 L60.7726139,36.1981009 L60.6276473,62.7269927 C60.6276473,77.866634 48.4772741,90.1684035 33.3959043,90.412925 L32.9380054,90.4166346 L32.9380054,62.7269927 L33.0160054,62.7269076 L33.0916756,36.1710488 C33.0967664,34.3740052 34.5549891,32.9199076 36.3520399,32.9199076 L57.5122852,32.9199076 Z M100.041894,32.9199076 C101.842551,32.9199076 103.302272,34.3796283 103.302272,36.1802849 L103.302272,73.3114363 C103.302272,75.112093 101.842551,76.5718136 100.041894,76.5718136 L78.8730073,76.5718136 C77.0723506,76.5718136 75.61263,75.112093 75.61263,73.3114363 L75.61263,36.1802849 C75.61263,34.3796283 77.0723506,32.9199076 78.8730073,32.9199076 L100.041894,32.9199076 Z M133.435117,32.7570273 L133.848751,32.760326 C147.472618,32.9777629 158.491593,43.917572 158.836129,57.5102078 L158.836129,57.5102078 L158.844436,57.5195631 L158.844436,73.148556 C158.844436,74.9492127 157.384715,76.4089334 155.584059,76.4089334 L155.584059,76.4089334 L121.384752,76.4089334 C119.584095,76.4089334 118.124374,74.9492127 118.124374,73.148556 L118.124374,36.0174047 C118.124374,34.216748 119.584095,32.7570273 121.384752,32.7570273 L133.435117,32.7570273 Z M189.465922,76.0831729 L189.465559,76.0448972 C178.018218,75.3706822 168.943011,65.8737652 168.943011,54.2572199 C168.943011,42.2030789 178.714823,32.4312668 190.768964,32.4312668 C202.385509,32.4312668 211.882427,41.5064741 212.556642,52.9538145 L212.594917,52.9541779 L212.594917,72.8227955 C212.594917,74.6234522 211.135197,76.0831729 209.33454,76.0831729 L189.465922,76.0831729 Z" id="形状结合" fill="#009999"></path>
                        <g id="编组-3" transform="translate(117.533385, 32.250237)">
                            <g id="编组备份-4" transform="translate(21.000000, 22.140598) scale(1, -1) translate(-21.000000, -22.140598) translate(0.000000, 0.140598)">
                                <g id="编组-5" transform="translate(20.774856, 22.000000) scale(-1, 1) translate(-20.774856, -22.000000) translate(0.274856, 0.000000)">
                                    <g id="编组-6">
                                        <g id="编组-7"></g>
                                    </g>
                                </g>
                            </g>
                        </g>
                        <g id="编组备份" transform="translate(75.576434, 0.000000)" fill="#FFCC66">
                            <circle id="椭圆形" cx="13.8448209" cy="13.8448209" r="13.8448209"></circle>
                        </g>
                    </g>
                </g>
            </g>
        </g>
    </g>
</svg>