<?xml version="1.0" encoding="UTF-8"?>
<svg width="2387px" height="796px" viewBox="0 0 2387 796" version="1.1" xmlns="http://www.w3.org/2000/svg" xmlns:xlink="http://www.w3.org/1999/xlink">
    <!-- Generator: Sketch 64 (93537) - https://sketch.com -->
    <title>banner6</title>
    <desc>Created with Sketch.</desc>
    <g id="banner6" stroke="none" stroke-width="1" fill="none" fill-rule="evenodd">
        <rect fill="#007074" x="0" y="0" width="2387" height="796"></rect>
        <path d="M1193.63395,795.755968 L1193.63395,2.26167449e-13 L1500.1386,0.0469363616 C1764.13568,3.97108646 1978.16151,199.47005 1988.96224,443.809513 L1989.22717,451.228542 L1989.38992,451.404948 L1989.38992,793.3687 L1193.63395,795.755968 Z" id="路径备份" fill="#00939B" opacity="0.599632626" transform="translate(1591.511936, 397.877984) scale(-1, 1) translate(-1591.511936, -397.877984) "></path>
        <path d="M2176.75045,397.877984 L2176.74885,397.546565 C2072.26724,391.549767 1989.38992,304.922898 1989.38992,198.938992 C1989.38992,89.0680206 2078.45794,-5.68434189e-14 2188.32891,-5.68434189e-14 C2294.31282,-5.68434189e-14 2380.93969,82.8773222 2386.93649,187.35893 L2387.2679,187.360532 L2387.2679,392.148541 C2387.2679,395.312825 2384.70275,397.877984 2381.53846,397.877984 L2176.75045,397.877984 Z" id="形状结合" fill="#00939B" opacity="0.599632626" transform="translate(2188.328912, 198.938992) scale(1, -1) translate(-2188.328912, -198.938992) "></path>
        <path d="M2176.75045,795.755968 L2176.74885,795.424549 C2072.26724,789.427751 1989.38992,702.800882 1989.38992,596.816976 C1989.38992,486.946005 2078.45794,397.877984 2188.32891,397.877984 C2294.31282,397.877984 2380.93969,480.755306 2386.93649,585.236914 L2387.2679,585.238516 L2387.2679,790.026525 C2387.2679,793.190809 2384.70275,795.755968 2381.53846,795.755968 L2176.75045,795.755968 Z" id="形状结合备份" fill="#00CBCF" opacity="0.599632626" transform="translate(2188.328912, 596.816976) scale(1, -1) translate(-2188.328912, -596.816976) "></path>
        <path d="M2176.75045,795.755968 L2176.74885,795.424549 C2072.26724,789.427751 1989.38992,702.800882 1989.38992,596.816976 C1989.38992,486.946005 2078.45794,397.877984 2188.32891,397.877984 C2294.31282,397.877984 2380.93969,480.755306 2386.93649,585.236914 L2387.2679,585.238516 L2387.2679,790.026525 C2387.2679,793.190809 2384.70275,795.755968 2381.53846,795.755968 L2176.75045,795.755968 Z" id="形状结合备份-2" fill="#00CBCF" opacity="0.599632626"></path>
        <path d="M983.1165,397.877984 L983.114898,397.546565 L982.62372,397.51777 C982.060514,397.484061 981.497939,397.448008 980.936006,397.409622 L983.114898,397.546565 C981.911431,397.477491 980.71083,397.39772 979.51319,397.307344 C978.9521,397.265004 978.391531,397.220326 977.831621,397.173328 C977.35125,397.133008 976.871145,397.09096 976.391531,397.04721 C975.838723,396.996783 975.286937,396.944131 974.735814,396.889229 C974.249361,396.84077 973.763227,396.790538 973.277616,396.738559 C972.73193,396.680149 972.186749,396.619515 971.642238,396.556683 C971.17285,396.502519 970.704055,396.446733 970.235765,396.38932 C969.661732,396.318943 969.088453,396.24612 968.515942,396.170863 C968.053599,396.110088 967.591759,396.047726 967.130424,395.983781 C966.617227,395.912648 966.10471,395.839565 965.592827,395.764533 C965.068827,395.687725 964.545375,395.608856 964.022596,395.527952 C963.507114,395.448178 962.992184,395.366407 962.477915,395.282666 C962.009468,395.206385 961.541662,395.128484 961.07441,395.048953 C960.515703,394.953856 959.957844,394.856439 959.400789,394.756703 C958.934095,394.673146 958.467969,394.587961 958.002413,394.501155 C957.484674,394.404621 956.967394,394.306032 956.450828,394.205445 C955.960327,394.109933 955.470558,394.012637 954.981439,393.913546 C954.481583,393.812279 953.982624,393.709184 953.484352,393.604225 C952.975397,393.497016 952.466634,393.387747 951.958598,393.276537 C951.495184,393.175093 951.032995,393.072174 950.571414,392.96765 C950.038575,392.846991 949.506124,392.724093 948.974496,392.599064 C948.515204,392.491046 948.056618,392.381459 947.598652,392.270288 C947.063735,392.140436 946.529571,392.008399 945.996261,391.874209 C945.545692,391.760837 945.09576,391.645936 944.646446,391.529504 C944.134298,391.396789 943.623146,391.262137 943.112803,391.125507 C942.601113,390.988517 942.089847,390.849431 941.579405,390.708361 C941.124748,390.582708 940.671003,390.455555 940.217917,390.326836 C939.722842,390.186189 939.228297,390.043598 938.734548,389.899145 C938.243336,389.755432 937.753293,389.609991 937.264045,389.462716 C936.797157,389.322174 936.330551,389.179827 935.864677,389.035814 C935.367037,388.88198 934.870327,388.726278 934.374461,388.568684 C933.914046,388.422357 933.454411,388.274417 932.995509,388.124853 C932.500419,387.963496 932.006268,387.800278 931.512979,387.635179 C931.049848,387.480175 930.587241,387.323433 930.125402,387.165039 C929.639759,386.99848 929.155339,386.830226 928.671774,386.660157 C928.211901,386.498421 927.752283,386.334857 927.293447,386.169654 C926.799121,385.991672 926.306083,385.811927 925.81396,385.630293 C925.394984,385.475657 924.976369,385.319536 924.558423,385.162049 C924.032725,384.963958 923.508324,384.763797 922.984992,384.561487 C922.553882,384.394828 922.123262,384.226617 921.693374,384.056952 C921.213348,383.867498 920.734605,383.67638 920.256781,383.483459 C919.79145,383.295584 919.326411,383.10576 918.862254,382.914231 C918.402477,382.724508 917.943796,382.533208 917.485988,382.340244 C917.042626,382.153368 916.600331,381.965038 916.158862,381.775156 C915.669442,381.564652 915.180721,381.3521 914.693024,381.137649 C914.283318,380.957491 913.874347,380.775997 913.466106,380.593168 C912.971555,380.371685 912.47818,380.148291 911.985884,379.922947 C911.565452,379.730499 911.14578,379.536615 910.726901,379.341316 C910.241444,379.114977 909.756767,378.8866 909.273166,378.656328 C908.862978,378.461012 908.453988,378.264537 908.045775,378.066708 C907.563594,377.833034 907.082198,377.597321 906.601898,377.359725 C906.185998,377.153986 905.771081,376.946917 905.356993,376.738444 C904.885618,376.50113 904.415278,376.261976 903.946019,376.021012 C903.543566,375.814354 903.141596,375.6062 902.740429,375.396718 C902.257821,375.144707 901.776758,374.890979 901.296867,374.635343 C900.879318,374.412917 900.462277,374.188841 900.046131,373.963325 C899.611945,373.72803 899.179207,373.491429 898.747449,373.25327 C898.287279,372.999442 897.827582,372.743485 897.36901,372.485763 C896.969972,372.261498 896.572339,372.036212 896.175561,371.809599 C895.735887,371.558489 895.296899,371.305538 894.858971,371.050963 C894.422881,370.797456 893.987916,370.542382 893.554009,370.285707 C893.122194,370.030269 892.691398,369.773227 892.261658,369.514607 C891.870506,369.279209 891.480135,369.042446 891.090647,368.804381 C890.625404,368.520011 890.161732,368.233979 889.699329,367.946102 C889.309299,367.703283 888.919943,367.459007 888.531496,367.213423 C888.10891,366.946256 887.687296,366.677475 887.266766,366.407153 C886.857164,366.143853 886.44889,365.879288 886.04165,365.613271 C885.608764,365.330502 885.176636,365.045819 884.745688,364.759501 C884.338836,364.489193 883.932796,364.217266 883.527817,363.943887 C883.140471,363.68241 882.754358,363.419786 882.369222,363.155842 C881.957423,362.873628 881.546429,362.589688 881.136559,362.304245 C880.753011,362.037132 880.370727,361.768901 879.989434,361.499362 C879.54324,361.183944 879.098246,360.866624 878.654618,360.547521 C878.298246,360.291182 877.942518,360.033521 877.587679,359.774713 C877.165943,359.467111 876.745908,359.158221 876.327135,358.847725 C875.930535,358.55367 875.534484,358.257737 875.139576,357.960366 C874.754409,357.670329 874.370821,357.3793 873.988326,357.086916 C873.588109,356.780987 873.18868,356.473256 872.790456,356.164046 C872.406634,355.866017 872.024044,355.566703 871.642582,355.266022 C871.250829,354.957229 870.860431,354.647128 870.471228,354.335595 C870.09811,354.036937 869.725844,353.736763 869.354686,353.435279 C868.964883,353.11865 868.576454,352.8007 868.189254,352.481315 C867.811352,352.169599 867.434371,351.856307 867.05857,351.541653 C866.682607,351.226862 866.308161,350.910993 865.934901,350.593771 C865.560631,350.275691 865.187308,349.956039 864.815188,349.635032 C864.457959,349.326872 864.101898,349.017515 863.746951,348.706917 C863.352751,348.361971 862.959851,348.015429 862.568336,347.667364 C862.227031,347.363937 861.886947,347.059505 861.54792,346.753924 C861.163088,346.407059 860.779209,346.058337 860.396703,345.708141 C860.055694,345.395935 859.716277,345.083019 859.377954,344.76894 C858.989286,344.408127 858.601648,344.045387 858.215467,343.681118 C857.890751,343.374826 857.567387,343.067759 857.245057,342.75962 C856.864776,342.396082 856.48585,342.030969 856.108373,341.664372 C855.759906,341.325949 855.412394,340.985984 855.066127,340.644761 C854.717427,340.301141 854.369932,339.956185 854.023707,339.609959 C853.677767,339.26402 853.332812,338.916525 852.989134,338.567767 C852.647968,338.221558 852.308004,337.874046 851.969307,337.525297 C851.602983,337.148102 851.23787,336.769176 850.87425,336.38881 C850.566193,336.066565 850.259127,335.743201 849.953139,335.418808 C849.588566,335.032304 849.225826,334.644666 848.864624,334.25558 C848.550934,333.917676 848.238018,333.578258 847.926271,333.237752 C847.575615,332.854743 847.226894,332.470864 846.879657,332.08562 C846.574447,331.747005 846.270016,331.406921 845.96674,331.065787 C845.618524,330.674101 845.271981,330.281201 844.92697,329.886928 C844.616437,329.532055 844.30708,329.175993 843.998972,328.818825 C843.677913,328.446644 843.358261,328.073321 843.039972,327.698805 C842.722959,327.325791 842.40709,326.951345 842.092583,326.575721 C841.777645,326.199581 841.464353,325.822601 841.152431,325.444448 C840.833252,325.057498 840.515302,324.669069 840.198797,324.279419 C839.897189,323.908108 839.597015,323.535843 839.29816,323.162477 C838.986824,322.773522 838.676723,322.383123 838.368062,321.991537 C838.06725,321.609908 837.767935,321.227319 837.469994,320.843609 C837.160696,320.445273 836.852965,320.045843 836.546722,319.645216 C836.254652,319.263131 835.963624,318.879543 835.673959,318.494871 C835.376216,318.099469 835.080282,317.703418 834.785793,317.306231 C834.475731,316.888044 834.166841,316.468009 833.859565,316.046721 C833.600432,315.691435 833.34277,315.335707 833.086259,314.979095 C832.767329,314.535707 832.450008,314.090712 832.13448,313.644361 C831.865052,313.263225 831.59682,312.880942 831.329903,312.497675 C831.044264,312.087523 830.760324,311.676529 830.477895,311.264418 C830.214166,310.879594 829.951542,310.493482 829.690244,310.1064 C829.398817,309.674685 829.109217,309.242032 828.821274,308.808183 C828.552841,308.403731 828.285903,307.998325 828.020411,307.591888 C827.746446,307.172482 827.473754,306.751562 827.202613,306.329551 C826.940263,305.92122 826.679635,305.512292 826.420463,305.102352 C826.174945,304.714009 825.930669,304.324653 825.687708,303.934394 C825.399973,303.47222 825.113941,303.008548 824.829763,302.543619 C824.591506,302.153817 824.354743,301.763446 824.119289,301.372199 C823.860725,300.942555 823.603683,300.511758 823.348227,300.079912 C823.09157,299.646037 822.836496,299.211071 822.583032,298.775054 C822.328415,298.337053 822.075463,297.898065 821.824143,297.458025 C821.59774,297.061613 821.372455,296.66398 821.148501,296.265497 C820.890467,295.80637 820.63451,295.346673 820.380327,294.88586 C820.142523,294.454745 819.905922,294.022007 819.670886,293.588298 C819.445111,293.171675 819.221035,292.754634 818.998407,292.336706 C818.742973,291.857194 818.489245,291.376132 818.237435,290.893909 C818.027752,290.492356 817.819598,290.090386 817.612778,289.687618 C817.371976,289.218675 817.132822,288.748334 816.895489,288.27692 C816.687035,287.862871 816.479966,287.447955 816.274308,287.032217 C816.036632,286.551755 815.800919,286.070358 815.567097,285.587875 C815.369415,285.179965 815.172941,284.770974 814.977826,284.36121 C814.747353,283.877185 814.518975,283.392508 814.292502,282.906765 C814.097337,282.488172 813.903454,282.0685 813.710992,281.64804 C813.485661,281.155772 813.262267,280.662397 813.040832,280.167953 C812.857955,279.759605 812.676461,279.350634 812.496309,278.94094 C812.281852,278.453232 812.069301,277.96451 811.85866,277.474774 C811.668914,277.033621 811.480584,276.591327 811.293814,276.148214 C811.100744,275.690156 810.909445,275.231475 810.719817,274.771928 C810.528192,274.307542 810.338368,273.842502 810.150257,273.376587 C809.957572,272.899348 809.766454,272.420604 809.577146,271.940948 C809.403412,271.50075 809.231346,271.060155 809.060809,270.618799 C808.862488,270.105538 808.666201,269.591161 808.471993,269.075767 C808.314416,268.657583 808.158295,268.238968 808.003547,267.819688 C807.822025,267.32787 807.642281,266.834831 807.464435,266.340886 C807.299095,265.88167 807.135531,265.422052 806.973613,264.961658 C806.803726,264.478613 806.635472,263.994193 806.469042,263.508926 C806.310519,263.046711 806.153777,262.584104 805.998694,262.120737 C805.833675,261.627684 805.670456,261.133533 805.509127,260.638529 C805.359535,260.179541 805.211595,259.719906 805.065285,259.259544 C804.907675,258.763625 804.751972,258.266916 804.598169,257.769372 C804.454126,257.303401 804.311778,256.836795 804.171103,256.369465 C804.017767,255.860082 803.866289,255.349393 803.71681,254.837852 C803.585774,254.389418 803.45642,253.940843 803.328605,253.491619 C803.181224,252.973631 803.035731,252.454209 802.892299,251.933934 C802.763906,251.468208 802.6373,251.002306 802.512349,250.535728 C802.374459,250.020842 802.238466,249.50468 802.104499,248.987702 C801.988016,248.538192 801.873115,248.08826 801.75975,247.637718 C801.625553,247.104382 801.493516,246.570217 801.363642,246.035206 C801.252493,245.577334 801.142906,245.118748 801.03491,244.659549 C800.909859,244.127828 800.786962,243.595377 800.666206,243.062113 C800.561779,242.600957 800.45886,242.138768 800.357552,241.675976 C800.246205,241.167318 800.136936,240.658555 800.029617,240.149074 C799.924768,239.651329 799.821673,239.15237 799.72045,238.652731 C799.621315,238.163395 799.524019,237.673625 799.428524,237.183212 C799.32792,236.666558 799.229332,236.149278 799.132751,235.631291 C799.042461,235.14705 798.953881,234.661942 798.867063,234.176224 C798.775435,233.663588 798.685787,233.150368 798.598109,232.636476 C798.506565,232.09992 798.417136,231.56243 798.329867,231.024217 C798.25447,230.559217 798.180733,230.093987 798.108611,229.628222 C798.026809,229.099945 797.947062,228.570816 797.869402,228.041009 C797.794387,227.529242 797.721304,227.016725 797.650179,226.503582 C797.586227,226.042194 797.523864,225.580354 797.463089,225.118014 C797.387832,224.545499 797.315009,223.97222 797.244632,223.398186 C797.187219,222.929897 797.131433,222.461103 797.07728,221.991811 C797.014437,221.447203 796.953803,220.902022 796.895377,220.356181 C796.843414,219.870725 796.793182,219.384592 796.744704,218.897942 C796.689822,218.347015 796.637169,217.795229 796.586775,217.242791 C796.542992,216.762808 796.500944,216.282702 796.460605,215.80211 C796.413627,215.242421 796.368948,214.681852 796.326598,214.120633 C796.290857,213.646995 796.256765,213.172765 796.224339,212.698077 C796.185944,212.136013 796.149892,211.573438 796.116182,211.010233 C796.106379,210.846446 796.096784,210.682776 796.087387,210.519054 L795.755968,210.517452 L795.755968,5.72944297 C795.755968,2.56515899 798.321127,-1.02076909e-13 801.485411,-1.58920328e-13 L1006.27342,-1.58920328e-13 L1006.27502,0.331419259 L1006.7662,0.360214102 C1007.32941,0.393923418 1007.89198,0.429975876 1008.45391,0.46836186 L1006.27502,0.331419259 C1007.47849,0.400493126 1008.67909,0.48026458 1009.87673,0.570639982 C1010.43782,0.61298008 1010.99839,0.657658512 1011.5583,0.704655826 C1012.03867,0.744976324 1012.51878,0.787023791 1012.99839,0.830773589 C1013.5512,0.881201111 1014.10298,0.933853447 1014.65411,0.988755013 C1015.14056,1.03721386 1015.62669,1.087446 1016.1123,1.13942549 C1016.65799,1.19783501 1017.20317,1.25846876 1017.74768,1.32130106 C1018.21707,1.37546505 1018.68586,1.43125092 1019.15416,1.48866405 C1019.72819,1.55904124 1020.30147,1.63186383 1020.87398,1.70712082 C1021.33632,1.76789604 1021.79816,1.83025851 1022.2595,1.89420294 C1022.77269,1.96533609 1023.28521,2.03841893 1023.79709,2.11345121 C1024.32678,2.19109342 1024.85591,2.27084102 1025.38435,2.35266835 C1025.84995,2.42476448 1026.31519,2.49850177 1026.77988,2.57384879 C1027.3184,2.66116793 1027.85589,2.75059646 1028.39264,2.84217522 C1028.90634,2.92981842 1029.41956,3.01946662 1029.9321,3.11107772 C1030.41791,3.19791234 1030.90302,3.2864925 1031.38751,3.37682865 C1031.90525,3.47336349 1032.42253,3.5719518 1032.93909,3.67253892 C1033.42959,3.76805081 1033.91936,3.86534718 1034.40848,3.96443792 C1034.90834,4.06570472 1035.4073,4.16879969 1035.90557,4.2737594 C1036.41452,4.38096803 1036.92329,4.49023707 1037.43132,4.60144753 C1037.89474,4.7028915 1038.35693,4.80581053 1038.81851,4.91033442 C1039.35135,5.03099337 1039.8838,5.15389062 1040.41542,5.27892037 C1040.87472,5.38693795 1041.3333,5.49652476 1041.79127,5.60769645 C1042.32619,5.73754786 1042.86035,5.86958499 1043.39366,6.00377533 C1043.84423,6.11714682 1044.29416,6.23204818 1044.74347,6.34848038 C1045.26065,6.48249751 1045.77681,6.61849067 1046.29215,6.75650146 C1046.75827,6.88133232 1047.22418,7.00793781 1047.68939,7.13619054 C1048.21018,7.27976298 1048.7296,7.42525576 1049.24816,7.57279939 C1049.69681,7.70045191 1050.14539,7.82980576 1050.59331,7.96069265 C1051.10536,8.11032095 1051.61605,8.26179914 1052.12588,8.41526774 C1052.59276,8.55580974 1053.05937,8.6981574 1053.52524,8.84217054 C1054.02288,8.99600363 1054.51959,9.15170642 1055.01546,9.30930034 C1055.47587,9.45562719 1055.93551,9.60356728 1056.39441,9.7531306 C1056.8895,9.91448806 1057.38365,10.0777065 1057.87694,10.242805 C1058.34007,10.3978091 1058.80268,10.5545513 1059.26452,10.7129453 C1059.75016,10.879504 1060.23458,11.0477579 1060.71815,11.2178274 C1061.17802,11.3795629 1061.63764,11.5431272 1062.09647,11.7083301 C1062.5908,11.8863124 1063.08384,12.0660566 1063.57596,12.2476911 C1063.99494,12.4023272 1064.41355,12.5584478 1064.8315,12.7159351 C1065.35719,12.9140256 1065.8816,13.1141869 1066.40493,13.3164975 C1066.83604,13.4831565 1067.26666,13.651367 1067.69655,13.8210318 C1068.17657,14.0104858 1068.65532,14.2016043 1069.13314,14.3945248 C1069.59847,14.5823998 1070.06351,14.7722239 1070.52767,14.9637534 C1070.98744,15.1534763 1071.44612,15.344776 1071.90393,15.5377399 C1072.34729,15.7246161 1072.78959,15.9129458 1073.23106,16.1028276 C1073.72048,16.3133325 1074.2092,16.5258837 1074.6969,16.7403356 C1075.1066,16.9204932 1075.51557,17.1019868 1075.92381,17.2848162 C1076.41837,17.5062987 1076.91174,17.729693 1077.40404,17.9550369 C1077.82447,18.1474854 1078.24414,18.3413686 1078.66302,18.5366679 C1079.14848,18.7630073 1079.63315,18.9913844 1080.11675,19.2216561 C1080.52694,19.4169724 1080.93593,19.613447 1081.34415,19.8112758 C1081.82633,20.0449504 1082.30772,20.2806636 1082.78802,20.518259 C1083.20392,20.7239982 1083.61884,20.9310672 1084.03293,21.1395401 C1084.5043,21.3768542 1084.97464,21.6160077 1085.4439,21.8569717 C1085.84635,22.0636302 1086.24832,22.2717842 1086.64949,22.4812662 C1087.1321,22.7332766 1087.61316,22.9870046 1088.09305,23.2426412 C1088.5106,23.4650672 1088.92764,23.6891429 1089.34379,23.9146596 C1089.77798,24.1499539 1090.21071,24.386555 1090.64247,24.6247137 C1091.10264,24.8785422 1091.56234,25.1344993 1092.02091,25.3922214 C1092.41995,25.6164864 1092.81758,25.8417722 1093.21436,26.0683847 C1093.65403,26.319495 1094.09302,26.5724464 1094.53095,26.8270214 C1094.96704,27.0805283 1095.402,27.3356021 1095.83591,27.5922772 C1096.26773,27.8477149 1096.69852,28.1047571 1097.12826,28.3633775 C1097.51941,28.5987753 1097.90979,28.8355383 1098.29927,29.0736033 C1098.76452,29.3579727 1099.22819,29.6440052 1099.69059,29.9318826 C1100.08062,30.1747012 1100.46998,30.418977 1100.85842,30.6645607 C1101.2649,30.9215453 1101.67049,31.1800288 1102.07508,31.4399381 C1102.50089,31.7134849 1102.92514,31.9883152 1103.34827,32.2647132 C1103.75429,32.5299347 1104.1597,32.7968728 1104.56407,33.0652501 C1104.998,33.3532492 1105.43065,33.6428492 1105.8621,33.9340969 C1106.24945,34.195574 1106.63556,34.4581981 1107.0207,34.7221418 C1107.4325,35.0043561 1107.84349,35.288296 1108.25336,35.5737388 C1108.63691,35.8408522 1109.01919,36.1090835 1109.40049,36.3786224 C1109.84668,36.6940399 1110.29167,37.0113605 1110.7353,37.3304626 C1111.09167,37.5868016 1111.4474,37.8444636 1111.80224,38.1032713 C1112.22398,38.4108726 1112.64401,38.719763 1113.06279,39.0302593 C1113.45939,39.324314 1113.85544,39.6202475 1114.25034,39.9176179 C1114.63551,40.2076554 1115.0191,40.4986837 1115.40159,40.7910681 C1115.80181,41.0969968 1116.20124,41.4047276 1116.59946,41.713938 C1116.98329,42.0119668 1117.36588,42.3112814 1117.74734,42.6119623 C1118.13909,42.920755 1118.52949,43.2308563 1118.91869,43.5423893 C1119.29181,43.8410472 1119.66408,44.1412207 1120.03523,44.4427048 C1120.42504,44.7593342 1120.81347,45.0772837 1121.20067,45.3966694 C1121.57857,45.7083851 1121.95555,46.0216769 1122.33135,46.336331 C1122.70731,46.6511222 1123.08176,46.9669909 1123.45502,47.284213 C1123.82929,47.602293 1124.20261,47.9219449 1124.57473,48.2429517 C1124.93196,48.5511123 1125.28802,48.8604689 1125.64297,49.171067 C1126.03717,49.5160129 1126.43007,49.8625554 1126.82158,50.2106205 C1127.16289,50.5140476 1127.50297,50.8184789 1127.842,51.1240599 C1128.22683,51.4709255 1128.61071,51.8196466 1128.99322,52.1698433 C1129.33423,52.4820496 1129.67364,52.7949653 1130.01197,53.1090441 C1130.40063,53.4698576 1130.78827,53.8325974 1131.17445,54.1968658 C1131.49917,54.5031584 1131.82253,54.8102248 1132.14486,55.1183639 C1132.52514,55.4819016 1132.90407,55.8470149 1133.28155,56.2136125 C1133.63001,56.5520356 1133.97753,56.8919996 1134.32379,57.2332233 C1134.67149,57.5758552 1135.01799,57.9198152 1135.36323,58.2650382 C1135.71083,58.6126316 1136.05645,58.9607906 1136.40079,59.3102171 C1136.74195,59.656426 1137.08192,60.003938 1137.42061,60.3526873 C1137.78694,60.7298819 1138.15205,61.1088079 1138.51567,61.4891741 C1138.82373,61.8114189 1139.13079,62.1347833 1139.43678,62.4591762 C1139.80135,62.8456798 1140.16409,63.2333178 1140.5253,63.6224036 C1140.83899,63.9603085 1141.1519,64.2997262 1141.46365,64.6402323 C1141.81431,65.0232406 1142.16303,65.40712 1142.51026,65.7923638 C1142.81547,66.1309792 1143.1199,66.4710627 1143.42318,66.8121967 C1143.7714,67.2038831 1144.11794,67.5967826 1144.46295,67.9910565 C1144.77348,68.3459295 1145.08284,68.7019906 1145.39095,69.0591588 C1145.71201,69.4313401 1146.03166,69.8046626 1146.34995,70.1791792 C1146.66696,70.5521928 1146.98283,70.9266386 1147.29734,71.3022629 C1147.61228,71.6784027 1147.92557,72.0553833 1148.23749,72.433536 C1148.55667,72.8204863 1148.87462,73.2089152 1149.19112,73.5985647 C1149.49273,73.9698758 1149.79291,74.3421413 1150.09176,74.7155073 C1150.4031,75.1044625 1150.7132,75.4948609 1151.02186,75.8864471 C1151.32267,76.2680759 1151.62199,76.6506654 1151.91993,77.0343747 C1152.22922,77.4327114 1152.53696,77.8321411 1152.8432,78.2327686 C1153.13527,78.6148531 1153.4263,78.9984406 1153.71596,79.3831129 C1154.0137,79.7785155 1154.30964,80.1745664 1154.60413,80.5717527 C1154.91419,80.98994 1155.22308,81.4099752 1155.53035,81.8312634 C1155.78949,82.1865494 1156.04715,82.5422774 1156.30366,82.898889 C1156.62259,83.3422774 1156.93991,83.787272 1157.25544,84.2336234 C1157.52487,84.6147593 1157.7931,84.9970425 1158.06002,85.3803093 C1158.34566,85.7904607 1158.6296,86.2014551 1158.91203,86.6135665 C1159.17575,86.9983902 1159.43838,87.3845026 1159.69968,87.7715839 C1159.97122,88.1738503 1160.24116,88.5768964 1160.50966,88.9809804 C1160.79782,89.4146403 1161.0845,89.8497742 1161.36951,90.2860959 C1161.63526,90.6929216 1161.89982,91.1011956 1162.16293,91.5104971 C1162.43344,91.9313276 1162.70222,92.3529418 1162.96946,92.7756325 C1163.21498,93.163975 1163.45925,93.5533311 1163.70221,93.9435902 C1163.98995,94.4057642 1164.27598,94.8694357 1164.56016,95.3343646 C1164.79841,95.724167 1165.03518,96.1145377 1165.27063,96.5057848 C1165.5292,96.9354294 1165.78624,97.3662262 1166.04169,97.7980724 C1166.29835,98.2319475 1166.55342,98.6669133 1166.80689,99.1029303 C1167.06151,99.540931 1167.31446,99.9799191 1167.56578,100.419959 C1167.79218,100.816371 1168.01747,101.214004 1168.24142,101.612487 C1168.49945,102.071614 1168.75541,102.531311 1169.00959,102.992124 C1169.2474,103.423239 1169.484,103.855977 1169.71903,104.289686 C1169.94481,104.706309 1170.16889,105.12335 1170.39151,105.541278 C1170.64695,106.02079 1170.90068,106.501852 1171.15248,106.984076 C1171.36217,107.385628 1171.57032,107.787598 1171.77714,108.190366 C1172.01794,108.659309 1172.2571,109.12965 1172.49443,109.601064 C1172.70289,110.015113 1172.90995,110.430029 1173.11561,110.845767 C1173.35329,111.326229 1173.589,111.807626 1173.82282,112.290109 C1174.02051,112.698019 1174.21698,113.10701 1174.41209,113.516774 C1174.64257,114.000799 1174.87094,114.485476 1175.09742,114.971219 C1175.29258,115.389812 1175.48647,115.809484 1175.67893,116.229944 C1175.90426,116.722212 1176.12765,117.215587 1176.34909,117.710031 C1176.53197,118.118379 1176.71346,118.52735 1176.89361,118.937044 C1177.10807,119.424752 1177.32062,119.913474 1177.53126,120.40321 C1177.72101,120.844363 1177.90934,121.286657 1178.09611,121.72977 C1178.28918,122.187828 1178.48048,122.646509 1178.6701,123.106056 C1178.86173,123.570442 1179.05155,124.035482 1179.23966,124.501397 C1179.43235,124.978636 1179.62347,125.45738 1179.81277,125.937036 C1179.98259,126.367293 1180.1508,126.797914 1180.31755,127.229261 C1180.51977,127.752356 1180.71993,128.276757 1180.91793,128.802218 C1181.0755,129.220401 1181.23163,129.639016 1181.38637,130.058296 C1181.5679,130.550114 1181.74764,131.043153 1181.92548,131.537098 C1182.09083,131.996314 1182.25439,132.455932 1182.41631,132.916326 C1182.58619,133.399371 1182.75445,133.883791 1182.92088,134.369059 C1183.0794,134.831273 1183.23614,135.29388 1183.39123,135.757247 C1183.55625,136.2503 1183.71946,136.744451 1183.88079,137.239455 C1184.03038,137.698443 1184.17833,138.158078 1184.32464,138.61844 C1184.48225,139.114359 1184.63795,139.611069 1184.79175,140.108612 C1184.93579,140.574583 1185.07814,141.041189 1185.21882,141.508519 C1185.36596,141.997325 1185.5114,142.487367 1185.655,142.978196 C1185.79957,143.472329 1185.94216,143.966874 1186.08288,144.462206 C1186.21152,144.915035 1186.33868,145.36878 1186.46426,145.823177 C1186.6054,146.333879 1186.74449,146.845144 1186.88158,147.357225 C1187.01811,147.867178 1187.15276,148.37833 1187.28542,148.890282 C1187.4019,149.339792 1187.51681,149.789724 1187.63017,150.240266 C1187.76437,150.773602 1187.8964,151.307767 1188.02628,151.842778 C1188.13743,152.30065 1188.24701,152.759236 1188.35501,153.218435 C1188.48006,153.750156 1188.60296,154.282607 1188.72371,154.815871 C1188.82814,155.277027 1188.93106,155.739216 1189.03237,156.202008 C1189.14372,156.710666 1189.25298,157.219429 1189.3603,157.72891 C1189.46515,158.226655 1189.56825,158.725614 1189.66947,159.225253 C1189.76861,159.714589 1189.8659,160.204359 1189.9614,160.694772 C1190.062,161.211426 1190.16059,161.728706 1190.25717,162.246693 C1190.33656,162.672472 1190.41464,163.098978 1190.49135,163.525956 C1190.59851,164.122385 1190.70305,164.719931 1190.80491,165.318388 C1190.88145,165.768082 1190.95648,166.218236 1191.02999,166.668899 C1191.11675,167.200807 1191.2014,167.733419 1191.28394,168.266731 C1191.36436,168.786417 1191.44279,169.306872 1191.5192,169.827983 C1191.59468,170.342731 1191.6682,170.85825 1191.73974,171.374402 C1191.80369,171.835791 1191.86606,172.297631 1191.92683,172.759971 C1192.00209,173.332485 1192.07491,173.905764 1192.14529,174.479799 C1192.2027,174.948087 1192.25849,175.416881 1192.31264,175.886173 C1192.37548,176.430781 1192.43612,176.975962 1192.49454,177.521803 C1192.54651,178.007259 1192.59674,178.493392 1192.64522,178.980042 C1192.7001,179.530969 1192.75275,180.082755 1192.80314,180.635193 C1192.84693,181.115176 1192.88898,181.595282 1192.92931,182.075874 C1192.97629,182.635563 1193.02097,183.196132 1193.06332,183.757352 C1193.09906,184.230989 1193.13315,184.705219 1193.16558,185.179907 C1193.20398,185.741971 1193.24003,186.304546 1193.27374,186.867752 C1193.28354,187.031539 1193.29314,187.195208 1193.30253,187.35893 L1193.63395,187.360532 L1193.63395,392.148541 C1193.63395,395.312825 1191.06879,397.877984 1187.90451,397.877984 L983.1165,397.877984 Z" id="形状结合" fill="#00CBCF" opacity="0.599632626"></path>
        <circle id="椭圆形" fill="#00939B" opacity="0.599632626" cx="795.755968" cy="795.755968" r="397.877984"></circle>
        <g id="Company-logo/light/Company-logo_info_light" transform="translate(60.000000, 645.000000)">
            <g id="编组-12备份-7">
                <g id="编组">
                    <g id="编组-2">
                        <circle id="椭圆形备份-3" fill="#FFFFFF" cx="13.8448209" cy="76.5537158" r="13.8448209"></circle>
                        <path d="M57.5122852,32.9199076 C59.3129419,32.9199076 60.7726626,34.3796283 60.7726626,36.1802849 L60.7726139,36.1981009 L60.6276473,62.7269927 C60.6276473,77.866634 48.4772741,90.1684035 33.3959043,90.412925 L32.9380054,90.4166346 L32.9380054,62.7269927 L33.0160054,62.7269076 L33.0916756,36.1710488 C33.0967664,34.3740052 34.5549891,32.9199076 36.3520399,32.9199076 L57.5122852,32.9199076 Z M100.041894,32.9199076 C101.842551,32.9199076 103.302272,34.3796283 103.302272,36.1802849 L103.302272,73.3114363 C103.302272,75.112093 101.842551,76.5718136 100.041894,76.5718136 L78.8730073,76.5718136 C77.0723506,76.5718136 75.61263,75.112093 75.61263,73.3114363 L75.61263,36.1802849 C75.61263,34.3796283 77.0723506,32.9199076 78.8730073,32.9199076 L100.041894,32.9199076 Z M133.435117,32.7570273 L133.848751,32.760326 C147.472618,32.9777629 158.491593,43.917572 158.836129,57.5102078 L158.836129,57.5102078 L158.844436,57.5195631 L158.844436,73.148556 C158.844436,74.9492127 157.384715,76.4089334 155.584059,76.4089334 L155.584059,76.4089334 L121.384752,76.4089334 C119.584095,76.4089334 118.124374,74.9492127 118.124374,73.148556 L118.124374,36.0174047 C118.124374,34.216748 119.584095,32.7570273 121.384752,32.7570273 L133.435117,32.7570273 Z M189.465922,76.0831729 L189.465559,76.0448972 C178.018218,75.3706822 168.943011,65.8737652 168.943011,54.2572199 C168.943011,42.2030789 178.714823,32.4312668 190.768964,32.4312668 C202.385509,32.4312668 211.882427,41.5064741 212.556642,52.9538145 L212.594917,52.9541779 L212.594917,72.8227955 C212.594917,74.6234522 211.135197,76.0831729 209.33454,76.0831729 L189.465922,76.0831729 Z" id="形状结合" fill="#FFFFFF"></path>
                        <g id="编组-3" transform="translate(117.533385, 32.250237)">
                            <g id="编组备份-4" transform="translate(21.000000, 22.140598) scale(1, -1) translate(-21.000000, -22.140598) translate(0.000000, 0.140598)">
                                <g id="编组-5" transform="translate(20.774856, 22.000000) scale(-1, 1) translate(-20.774856, -22.000000) translate(0.274856, 0.000000)">
                                    <g id="编组-6">
                                        <g id="编组-7"></g>
                                    </g>
                                </g>
                            </g>
                        </g>
                        <g id="编组备份" transform="translate(75.576434, 0.000000)" fill="#FFFFFF">
                            <circle id="椭圆形" cx="13.8448209" cy="13.8448209" r="13.8448209"></circle>
                        </g>
                    </g>
                </g>
            </g>
        </g>
    </g>
</svg>