<?xml version="1.0" encoding="UTF-8"?>
<svg width="2387px" height="796px" viewBox="0 0 2387 796" version="1.1" xmlns="http://www.w3.org/2000/svg" xmlns:xlink="http://www.w3.org/1999/xlink">
    <!-- Generator: Sketch 64 (93537) - https://sketch.com -->
    <title>banner8</title>
    <desc>Created with Sketch.</desc>
    <g id="banner8" stroke="none" stroke-width="1" fill="none" fill-rule="evenodd">
        <rect fill="#FFFFFF" x="0" y="0" width="2387" height="796"></rect>
        <path d="M1807.81169,246.879775 C1273.41638,234.545079 676.296778,808.415097 311.93634,1314.1376 C518.407254,1523.82741 865.431431,1709.38874 1181.21048,1721.72344 C1837.05927,1758.72752 2402.93374,1245.99008 2463.66048,592.25124 C2317.9163,394.896117 2135.73608,259.214471 1807.81169,246.879775 Z" id="路径" fill="#FFCC66" fill-rule="nonzero" opacity="0.200567336"></path>
        <path d="M2387.2679,799.702344 C2258.17946,924.38189 2149.38766,1016.96721 1858.16431,1025.83009 C1566.94096,1034.69297 1089.29801,720.876242 580.454561,567.68474 C307.416609,491.088988 105.010017,686.850722 -19.0981432,878.3401 C129.831648,1376.21248 564.210206,1746.42528 1097.87529,1771.9572 C1706.00528,1823.02104 2263.15974,1399.7024 2387.2679,799.702344 Z" id="路径" fill="#FF7673" fill-rule="nonzero" opacity="0.200567336"></path>
        <g id="Company-logo/light/Company-logo_info_light" transform="translate(1087.000000, 645.000000)">
            <g id="编组-12备份-7">
                <g id="编组">
                    <g id="编组-2">
                        <circle id="椭圆形备份-3" fill="#FF6666" cx="13.8448209" cy="76.5537158" r="13.8448209"></circle>
                        <path d="M57.5122852,32.9199076 C59.3129419,32.9199076 60.7726626,34.3796283 60.7726626,36.1802849 L60.7726139,36.1981009 L60.6276473,62.7269927 C60.6276473,77.866634 48.4772741,90.1684035 33.3959043,90.412925 L32.9380054,90.4166346 L32.9380054,62.7269927 L33.0160054,62.7269076 L33.0916756,36.1710488 C33.0967664,34.3740052 34.5549891,32.9199076 36.3520399,32.9199076 L57.5122852,32.9199076 Z M100.041894,32.9199076 C101.842551,32.9199076 103.302272,34.3796283 103.302272,36.1802849 L103.302272,73.3114363 C103.302272,75.112093 101.842551,76.5718136 100.041894,76.5718136 L78.8730073,76.5718136 C77.0723506,76.5718136 75.61263,75.112093 75.61263,73.3114363 L75.61263,36.1802849 C75.61263,34.3796283 77.0723506,32.9199076 78.8730073,32.9199076 L100.041894,32.9199076 Z M133.435117,32.7570273 L133.848751,32.760326 C147.472618,32.9777629 158.491593,43.917572 158.836129,57.5102078 L158.836129,57.5102078 L158.844436,57.5195631 L158.844436,73.148556 C158.844436,74.9492127 157.384715,76.4089334 155.584059,76.4089334 L155.584059,76.4089334 L121.384752,76.4089334 C119.584095,76.4089334 118.124374,74.9492127 118.124374,73.148556 L118.124374,36.0174047 C118.124374,34.216748 119.584095,32.7570273 121.384752,32.7570273 L133.435117,32.7570273 Z M189.465922,76.0831729 L189.465559,76.0448972 C178.018218,75.3706822 168.943011,65.8737652 168.943011,54.2572199 C168.943011,42.2030789 178.714823,32.4312668 190.768964,32.4312668 C202.385509,32.4312668 211.882427,41.5064741 212.556642,52.9538145 L212.594917,52.9541779 L212.594917,72.8227955 C212.594917,74.6234522 211.135197,76.0831729 209.33454,76.0831729 L189.465922,76.0831729 Z" id="形状结合" fill="#009999"></path>
                        <g id="编组-3" transform="translate(117.533385, 32.250237)">
                            <g id="编组备份-4" transform="translate(21.000000, 22.140598) scale(1, -1) translate(-21.000000, -22.140598) translate(0.000000, 0.140598)">
                                <g id="编组-5" transform="translate(20.774856, 22.000000) scale(-1, 1) translate(-20.774856, -22.000000) translate(0.274856, 0.000000)">
                                    <g id="编组-6">
                                        <g id="编组-7"></g>
                                    </g>
                                </g>
                            </g>
                        </g>
                        <g id="编组备份" transform="translate(75.576434, 0.000000)" fill="#FFCC66">
                            <circle id="椭圆形" cx="13.8448209" cy="13.8448209" r="13.8448209"></circle>
                        </g>
                    </g>
                </g>
            </g>
        </g>
    </g>
</svg>